<svg width="165" height="35" viewBox="0 0 165 35" fill="none" xmlns="http://www.w3.org/2000/svg">
<path d="M23.26 32V29.16C23.26 28.8 23.1733 28.5283 23 28.345C22.8267 28.1617 22.6 28.07 22.32 28.07C22.0833 28.07 21.8733 28.135 21.69 28.265C21.51 28.395 21.3683 28.5917 21.265 28.855C21.1617 29.115 21.11 29.44 21.11 29.83H20.72C20.72 29.2 20.7983 28.6767 20.955 28.26C21.1117 27.84 21.3333 27.5267 21.62 27.32C21.9067 27.1133 22.2433 27.01 22.63 27.01C23.03 27.01 23.3633 27.1 23.63 27.28C23.9 27.4567 24.1017 27.7067 24.235 28.03C24.3717 28.3533 24.44 28.73 24.44 29.16V32H23.26ZM19.93 32V25.14H21.11V32H19.93ZM29.3905 27.13H30.5705V32H29.3905V27.13ZM26.0605 27.13H27.2405V30.11C27.2405 30.4267 27.3188 30.665 27.4755 30.825C27.6321 30.9817 27.8471 31.06 28.1205 31.06C28.3538 31.06 28.5655 31 28.7555 30.88C28.9488 30.7567 29.1021 30.5767 29.2155 30.34C29.3321 30.1 29.3905 29.8033 29.3905 29.45H29.7105C29.7105 30.0433 29.6338 30.535 29.4805 30.925C29.3271 31.315 29.1155 31.6067 28.8455 31.8C28.5755 31.9933 28.2638 32.09 27.9105 32.09C27.5638 32.09 27.2505 32.0283 26.9705 31.905C26.6905 31.7817 26.4688 31.5833 26.3055 31.31C26.1421 31.0367 26.0605 30.6767 26.0605 30.23V27.13ZM34.22 32.14C33.8133 32.14 33.4417 32.0333 33.105 31.82C32.7717 31.6033 32.505 31.3017 32.305 30.915C32.1083 30.525 32.01 30.07 32.01 29.55C32.01 29.0367 32.105 28.59 32.295 28.21C32.4883 27.8267 32.745 27.5317 33.065 27.325C33.3883 27.115 33.7467 27.01 34.14 27.01C34.5 27.01 34.8117 27.0967 35.075 27.27C35.3383 27.44 35.54 27.6933 35.68 28.03C35.82 28.3667 35.89 28.78 35.89 29.27H35.52C35.52 29.0167 35.4683 28.8017 35.365 28.625C35.2617 28.445 35.125 28.3083 34.955 28.215C34.7883 28.1183 34.6067 28.07 34.41 28.07C34.1733 28.07 33.9633 28.1317 33.78 28.255C33.6 28.3783 33.4583 28.5517 33.355 28.775C33.2517 28.995 33.2 29.2533 33.2 29.55C33.2 29.8567 33.2517 30.1233 33.355 30.35C33.4583 30.5767 33.6 30.7533 33.78 30.88C33.9633 31.0067 34.17 31.07 34.4 31.07C34.5867 31.07 34.765 31.02 34.935 30.92C35.1083 30.8167 35.2483 30.6733 35.355 30.49C35.465 30.3067 35.52 30.0933 35.52 29.85H35.89C35.89 30.36 35.8133 30.785 35.66 31.125C35.51 31.4617 35.3083 31.715 35.055 31.885C34.8017 32.055 34.5233 32.14 34.22 32.14ZM35.74 32L35.52 30.8V25.14H36.71V32H35.74ZM47.7319 32.14C47.4085 32.14 47.1069 32.07 46.8269 31.93C46.5469 31.7867 46.2485 31.57 45.9319 31.28L42.7619 28.41C42.5519 28.22 42.3785 28.0017 42.2419 27.755C42.1085 27.5083 42.0419 27.25 42.0419 26.98C42.0419 26.6867 42.1269 26.4217 42.2969 26.185C42.4669 25.945 42.7152 25.755 43.0419 25.615C43.3685 25.4717 43.7652 25.4 44.2319 25.4C44.6819 25.4 45.0652 25.47 45.3819 25.61C45.7019 25.75 45.9469 25.9383 46.1169 26.175C46.2869 26.4117 46.3719 26.6733 46.3719 26.96C46.3719 27.26 46.2985 27.53 46.1519 27.77C46.0052 28.0067 45.7852 28.22 45.4919 28.41C45.1985 28.5967 44.8319 28.7633 44.3919 28.91L43.7719 28.33C44.0719 28.2133 44.3169 28.095 44.5069 27.975C44.7002 27.8517 44.8419 27.72 44.9319 27.58C45.0252 27.44 45.0719 27.2833 45.0719 27.11C45.0719 26.91 44.9935 26.745 44.8369 26.615C44.6835 26.485 44.4819 26.42 44.2319 26.42C43.9419 26.42 43.7202 26.4917 43.5669 26.635C43.4169 26.775 43.3419 26.9467 43.3419 27.15C43.3419 27.3033 43.3802 27.4483 43.4569 27.585C43.5335 27.7217 43.6519 27.8633 43.8119 28.01L46.8819 30.78C47.0052 30.8833 47.1185 30.9633 47.2219 31.02C47.3285 31.0733 47.4585 31.1 47.6119 31.1C47.7719 31.1 47.9085 31.0417 48.0219 30.925C48.1385 30.8083 48.2019 30.62 48.2119 30.36H49.2819C49.2685 30.9033 49.1335 31.3367 48.8769 31.66C48.6202 31.98 48.2385 32.14 47.7319 32.14ZM43.7719 32.14C43.4019 32.14 43.0552 32.09 42.7319 31.99C42.4085 31.89 42.1235 31.75 41.8769 31.57C41.6302 31.39 41.4369 31.18 41.2969 30.94C41.1602 30.6967 41.0919 30.4333 41.0919 30.15C41.0919 29.6367 41.3002 29.2467 41.7169 28.98C42.1369 28.7133 42.7185 28.55 43.4619 28.49L43.8419 29.13C43.3319 29.1733 42.9619 29.2767 42.7319 29.44C42.5052 29.6 42.3919 29.8133 42.3919 30.08C42.3919 30.2633 42.4469 30.43 42.5569 30.58C42.6669 30.7267 42.8252 30.845 43.0319 30.935C43.2385 31.025 43.4885 31.07 43.7819 31.07C44.1552 31.07 44.5002 30.9967 44.8169 30.85C45.1335 30.7 45.4252 30.4933 45.6919 30.23C45.9619 29.9633 46.2069 29.6517 46.4269 29.295C46.6469 28.935 46.8419 28.5433 47.0119 28.12L47.8019 28.56C47.6219 29.0933 47.3985 29.58 47.1319 30.02C46.8685 30.4567 46.5669 30.8333 46.2269 31.15C45.8869 31.4667 45.5102 31.7117 45.0969 31.885C44.6869 32.055 44.2452 32.14 43.7719 32.14ZM53.2796 32V25.14H54.4596V32H53.2796ZM54.2996 28.99L56.3796 27.15H57.9796L54.2996 30.21V28.99ZM56.6596 32L54.4896 28.91L55.6096 28.64L58.0996 32H56.6596ZM59.1976 32V27.13H60.3776V32H59.1976ZM60.0876 29.87C60.0876 29.2333 60.1592 28.7067 60.3026 28.29C60.4459 27.8733 60.6376 27.565 60.8776 27.365C61.1209 27.1617 61.3909 27.06 61.6876 27.06C61.7676 27.06 61.8426 27.065 61.9126 27.075C61.9859 27.085 62.0576 27.1 62.1276 27.12L62.1076 28.3C62.0209 28.28 61.9276 28.2633 61.8276 28.25C61.7276 28.2367 61.6376 28.23 61.5576 28.23C61.2976 28.23 61.0792 28.2933 60.9026 28.42C60.7292 28.5433 60.5976 28.7267 60.5076 28.97C60.4209 29.2133 60.3776 29.5133 60.3776 29.87H60.0876ZM65.0334 32.14C64.59 32.14 64.1884 32.045 63.8284 31.855C63.4717 31.665 63.1884 31.3817 62.9784 31.005C62.7684 30.625 62.6634 30.15 62.6634 29.58C62.6634 29 62.7684 28.52 62.9784 28.14C63.1884 27.76 63.4717 27.4767 63.8284 27.29C64.1884 27.1033 64.59 27.01 65.0334 27.01C65.47 27.01 65.865 27.1033 66.2184 27.29C66.575 27.4767 66.8584 27.76 67.0684 28.14C67.2784 28.52 67.3834 29 67.3834 29.58C67.3834 30.15 67.2784 30.625 67.0684 31.005C66.8584 31.3817 66.575 31.665 66.2184 31.855C65.865 32.045 65.47 32.14 65.0334 32.14ZM64.9934 31.11C65.2267 31.11 65.4334 31.0533 65.6134 30.94C65.7967 30.8233 65.94 30.6517 66.0434 30.425C66.15 30.1983 66.2034 29.9167 66.2034 29.58C66.2034 29.0667 66.1017 28.68 65.8984 28.42C65.6984 28.16 65.4234 28.03 65.0734 28.03C64.8367 28.03 64.6267 28.0883 64.4434 28.205C64.26 28.3183 64.115 28.49 64.0084 28.72C63.905 28.95 63.8534 29.2367 63.8534 29.58C63.8534 30.0867 63.955 30.4683 64.1584 30.725C64.365 30.9817 64.6434 31.11 64.9934 31.11ZM71.2174 32.14C70.8608 32.14 70.5574 32.0633 70.3074 31.91C70.0574 31.7567 69.8658 31.525 69.7324 31.215C69.6024 30.9017 69.5374 30.51 69.5374 30.04H69.9674C69.9674 30.2567 70.0174 30.4417 70.1174 30.595C70.2174 30.7483 70.3491 30.8667 70.5124 30.95C70.6791 31.03 70.8574 31.07 71.0474 31.07C71.2441 31.07 71.4374 31.0167 71.6274 30.91C71.8208 30.8 71.9808 30.635 72.1074 30.415C72.2341 30.1917 72.2974 29.91 72.2974 29.57C72.2974 29.26 72.2441 28.9933 72.1374 28.77C72.0308 28.5433 71.8841 28.37 71.6974 28.25C71.5141 28.13 71.3041 28.07 71.0674 28.07C70.8674 28.07 70.6841 28.115 70.5174 28.205C70.3508 28.295 70.2174 28.4267 70.1174 28.6C70.0174 28.77 69.9674 28.9767 69.9674 29.22H69.5374C69.5374 28.71 69.6158 28.2933 69.7724 27.97C69.9291 27.6433 70.1391 27.4017 70.4024 27.245C70.6658 27.0883 70.9541 27.01 71.2674 27.01C71.6508 27.01 72.0108 27.1117 72.3474 27.315C72.6874 27.5183 72.9624 27.8117 73.1724 28.195C73.3824 28.575 73.4874 29.0333 73.4874 29.57C73.4874 30.11 73.3808 30.5717 73.1674 30.955C72.9541 31.3383 72.6741 31.6317 72.3274 31.835C71.9841 32.0383 71.6141 32.14 71.2174 32.14ZM68.7874 34.37V27.15H69.7574L69.9674 28.35V34.37H68.7874ZM77.3209 32.14C76.9643 32.14 76.6609 32.0633 76.4109 31.91C76.1609 31.7567 75.9693 31.525 75.8359 31.215C75.7059 30.9017 75.6409 30.51 75.6409 30.04H76.0709C76.0709 30.2567 76.1209 30.4417 76.2209 30.595C76.3209 30.7483 76.4526 30.8667 76.6159 30.95C76.7826 31.03 76.9609 31.07 77.1509 31.07C77.3476 31.07 77.5409 31.0167 77.7309 30.91C77.9243 30.8 78.0843 30.635 78.2109 30.415C78.3376 30.1917 78.4009 29.91 78.4009 29.57C78.4009 29.26 78.3476 28.9933 78.2409 28.77C78.1343 28.5433 77.9876 28.37 77.8009 28.25C77.6176 28.13 77.4076 28.07 77.1709 28.07C76.9709 28.07 76.7876 28.115 76.6209 28.205C76.4543 28.295 76.3209 28.4267 76.2209 28.6C76.1209 28.77 76.0709 28.9767 76.0709 29.22H75.6409C75.6409 28.71 75.7193 28.2933 75.8759 27.97C76.0326 27.6433 76.2426 27.4017 76.5059 27.245C76.7693 27.0883 77.0576 27.01 77.3709 27.01C77.7543 27.01 78.1143 27.1117 78.4509 27.315C78.7909 27.5183 79.0659 27.8117 79.2759 28.195C79.4859 28.575 79.5909 29.0333 79.5909 29.57C79.5909 30.11 79.4843 30.5717 79.2709 30.955C79.0576 31.3383 78.7776 31.6317 78.4309 31.835C78.0876 32.0383 77.7176 32.14 77.3209 32.14ZM74.8909 34.37V27.15H75.8609L76.0709 28.35V34.37H74.8909ZM82.8045 32.14C82.3378 32.14 81.9361 32.0767 81.5995 31.95C81.2661 31.82 81.0095 31.635 80.8295 31.395C80.6495 31.1517 80.5578 30.86 80.5545 30.52H81.6445C81.6545 30.76 81.7495 30.935 81.9295 31.045C82.1095 31.155 82.3545 31.21 82.6645 31.21C82.8345 31.21 82.9845 31.185 83.1145 31.135C83.2478 31.085 83.3511 31.0167 83.4245 30.93C83.4978 30.8433 83.5345 30.7467 83.5345 30.64C83.5345 30.5033 83.4845 30.3967 83.3845 30.32C83.2878 30.24 83.1311 30.1667 82.9145 30.1L81.8545 29.72C81.4745 29.5833 81.1828 29.4033 80.9795 29.18C80.7761 28.9567 80.6745 28.69 80.6745 28.38C80.6745 27.97 80.8595 27.64 81.2295 27.39C81.6028 27.1367 82.1011 27.01 82.7245 27.01C83.3445 27.01 83.8228 27.1467 84.1595 27.42C84.4995 27.69 84.6745 28.0333 84.6845 28.45H83.5745C83.5578 28.29 83.4811 28.1633 83.3445 28.07C83.2078 27.9767 83.0011 27.93 82.7245 27.93C82.4745 27.93 82.2778 27.9817 82.1345 28.085C81.9945 28.185 81.9245 28.3033 81.9245 28.44C81.9245 28.67 82.1211 28.8433 82.5145 28.96L83.6645 29.39C84.0378 29.5167 84.3278 29.68 84.5345 29.88C84.7411 30.08 84.8445 30.3333 84.8445 30.64C84.8445 30.8967 84.7578 31.14 84.5845 31.37C84.4145 31.5967 84.1761 31.7817 83.8695 31.925C83.5628 32.0683 83.2078 32.14 82.8045 32.14ZM87.9079 32.14C87.6212 32.14 87.3579 32.0867 87.1179 31.98C86.8812 31.8733 86.6912 31.71 86.5479 31.49C86.4079 31.27 86.3379 30.99 86.3379 30.65V25.86H87.5179V30.61C87.5179 31.01 87.7079 31.21 88.0879 31.21C88.2046 31.21 88.3212 31.1967 88.4379 31.17C88.5546 31.1433 88.6879 31.1033 88.8379 31.05L89.0079 31.88C88.8212 31.9533 88.6396 32.015 88.4629 32.065C88.2862 32.115 88.1012 32.14 87.9079 32.14ZM85.6579 27.93V27.15H88.8379V27.93H85.6579ZM92.0232 32.14C91.6099 32.14 91.2315 32.0333 90.8882 31.82C90.5449 31.6067 90.2699 31.3083 90.0632 30.925C89.8565 30.5383 89.7532 30.0867 89.7532 29.57C89.7532 29.0367 89.8549 28.5783 90.0582 28.195C90.2649 27.8117 90.5399 27.5183 90.8832 27.315C91.2265 27.1117 91.6065 27.01 92.0232 27.01C92.4099 27.01 92.7432 27.0883 93.0232 27.245C93.3065 27.3983 93.5332 27.6083 93.7032 27.875C93.8765 28.1383 93.9932 28.4367 94.0532 28.77C94.1132 29.1033 94.1165 29.4467 94.0632 29.8H90.6932V29.16H93.2282L92.9982 29.31C93.0082 29.1533 92.9999 28.995 92.9732 28.835C92.9499 28.675 92.9032 28.5283 92.8332 28.395C92.7632 28.2617 92.6632 28.155 92.5332 28.075C92.4065 27.9917 92.2432 27.95 92.0432 27.95C91.8032 27.95 91.5999 28.01 91.4332 28.13C91.2665 28.25 91.1399 28.4133 91.0532 28.62C90.9665 28.8267 90.9232 29.06 90.9232 29.32V29.79C90.9232 30.0633 90.9632 30.305 91.0432 30.515C91.1265 30.725 91.2482 30.89 91.4082 31.01C91.5715 31.13 91.7765 31.19 92.0232 31.19C92.2532 31.19 92.4465 31.1367 92.6032 31.03C92.7599 30.9233 92.8599 30.7633 92.9032 30.55H94.0932C94.0432 30.8633 93.9249 31.14 93.7382 31.38C93.5549 31.6167 93.3165 31.8033 93.0232 31.94C92.7299 32.0733 92.3965 32.14 92.0232 32.14ZM95.5159 32V27.13H96.6959V32H95.5159ZM96.4059 29.87C96.4059 29.2333 96.4776 28.7067 96.6209 28.29C96.7643 27.8733 96.9559 27.565 97.1959 27.365C97.4393 27.1617 97.7093 27.06 98.0059 27.06C98.0859 27.06 98.1609 27.065 98.2309 27.075C98.3043 27.085 98.3759 27.1 98.4459 27.12L98.4259 28.3C98.3393 28.28 98.2459 28.2633 98.1459 28.25C98.0459 28.2367 97.9559 28.23 97.8759 28.23C97.6159 28.23 97.3976 28.2933 97.2209 28.42C97.0476 28.5433 96.9159 28.7267 96.8259 28.97C96.7393 29.2133 96.6959 29.5133 96.6959 29.87H96.4059ZM102.532 32L102.382 30.82V28.87C102.382 28.53 102.312 28.2783 102.172 28.115C102.035 27.9517 101.802 27.87 101.472 27.87C101.282 27.87 101.117 27.8983 100.977 27.955C100.837 28.0117 100.728 28.0933 100.652 28.2C100.578 28.3033 100.542 28.43 100.542 28.58H99.2517C99.2517 28.2133 99.3401 27.915 99.5167 27.685C99.6934 27.4517 99.9467 27.2817 100.277 27.175C100.61 27.065 101.008 27.01 101.472 27.01C101.892 27.01 102.258 27.0783 102.572 27.215C102.885 27.3483 103.128 27.555 103.302 27.835C103.475 28.115 103.562 28.4733 103.562 28.91V32H102.532ZM100.942 32.14C100.525 32.14 100.177 32.0683 99.8967 31.925C99.6201 31.7783 99.4117 31.5867 99.2717 31.35C99.1317 31.1133 99.0617 30.8567 99.0617 30.58C99.0617 30.2733 99.1417 30.0167 99.3017 29.81C99.4651 29.6 99.6951 29.4433 99.9917 29.34C100.288 29.2333 100.638 29.18 101.042 29.18C101.305 29.18 101.553 29.2 101.787 29.24C102.023 29.28 102.258 29.3333 102.492 29.4V30.09C102.308 30.03 102.108 29.9833 101.892 29.95C101.675 29.9167 101.472 29.9 101.282 29.9C101.002 29.9 100.772 29.9517 100.592 30.055C100.412 30.1583 100.322 30.3333 100.322 30.58C100.322 30.76 100.395 30.915 100.542 31.045C100.688 31.175 100.922 31.24 101.242 31.24C101.485 31.24 101.692 31.1867 101.862 31.08C102.032 30.9733 102.16 30.84 102.247 30.68C102.337 30.52 102.382 30.36 102.382 30.2H102.662C102.662 30.55 102.597 30.8733 102.467 31.17C102.337 31.4633 102.143 31.6983 101.887 31.875C101.633 32.0517 101.318 32.14 100.942 32.14ZM107.721 32.14C107.365 32.14 107.061 32.0633 106.811 31.91C106.561 31.7567 106.37 31.525 106.236 31.215C106.106 30.9017 106.041 30.51 106.041 30.04H106.471C106.471 30.2567 106.521 30.4417 106.621 30.595C106.721 30.7483 106.853 30.8667 107.016 30.95C107.183 31.03 107.361 31.07 107.551 31.07C107.748 31.07 107.941 31.0167 108.131 30.91C108.325 30.8 108.485 30.635 108.611 30.415C108.738 30.1917 108.801 29.91 108.801 29.57C108.801 29.26 108.748 28.9933 108.641 28.77C108.535 28.5433 108.388 28.37 108.201 28.25C108.018 28.13 107.808 28.07 107.571 28.07C107.371 28.07 107.188 28.115 107.021 28.205C106.855 28.295 106.721 28.4267 106.621 28.6C106.521 28.77 106.471 28.9767 106.471 29.22H106.041C106.041 28.71 106.12 28.2933 106.276 27.97C106.433 27.6433 106.643 27.4017 106.906 27.245C107.17 27.0883 107.458 27.01 107.771 27.01C108.155 27.01 108.515 27.1117 108.851 27.315C109.191 27.5183 109.466 27.8117 109.676 28.195C109.886 28.575 109.991 29.0333 109.991 29.57C109.991 30.11 109.885 30.5717 109.671 30.955C109.458 31.3383 109.178 31.6317 108.831 31.835C108.488 32.0383 108.118 32.14 107.721 32.14ZM105.291 34.37V27.15H106.261L106.471 28.35V34.37H105.291ZM112.085 26.26C111.855 26.26 111.675 26.2 111.545 26.08C111.418 25.9567 111.355 25.7867 111.355 25.57C111.355 25.36 111.418 25.1933 111.545 25.07C111.675 24.9433 111.855 24.88 112.085 24.88C112.312 24.88 112.49 24.9433 112.62 25.07C112.75 25.1933 112.815 25.36 112.815 25.57C112.815 25.7867 112.75 25.9567 112.62 26.08C112.49 26.2 112.312 26.26 112.085 26.26ZM111.495 32V27.13H112.675V32H111.495Z" fill="white"/>
<path d="M8.52 18V12.32C8.52 11.6 8.34667 11.0567 8 10.69C7.65333 10.3233 7.2 10.14 6.64 10.14C6.16667 10.14 5.74667 10.27 5.38 10.53C5.02 10.79 4.73667 11.1833 4.53 11.71C4.32333 12.23 4.22 12.88 4.22 13.66H3.44C3.44 12.4 3.59667 11.3533 3.91 10.52C4.22333 9.68 4.66667 9.05333 5.24 8.64C5.81333 8.22667 6.48667 8.02 7.26 8.02C8.06 8.02 8.72667 8.2 9.26 8.56C9.8 8.91333 10.2033 9.41333 10.47 10.06C10.7433 10.7067 10.88 11.46 10.88 12.32V18H8.52ZM1.86 18V8.3H3.92L4.22 10.22V18H1.86ZM15.7009 6.52C15.2409 6.52 14.8809 6.4 14.6209 6.16C14.3676 5.91333 14.2409 5.57333 14.2409 5.14C14.2409 4.72 14.3676 4.38667 14.6209 4.14C14.8809 3.88667 15.2409 3.76 15.7009 3.76C16.1543 3.76 16.5109 3.88667 16.7709 4.14C17.0309 4.38667 17.1609 4.72 17.1609 5.14C17.1609 5.57333 17.0309 5.91333 16.7709 6.16C16.5109 6.4 16.1543 6.52 15.7009 6.52ZM14.5209 18V8.26H16.8809V18H14.5209ZM27.5434 18V12.32C27.5434 11.6 27.3701 11.0567 27.0234 10.69C26.6768 10.3233 26.2234 10.14 25.6634 10.14C25.1901 10.14 24.7701 10.27 24.4034 10.53C24.0434 10.79 23.7601 11.1833 23.5534 11.71C23.3468 12.23 23.2434 12.88 23.2434 13.66H22.4634C22.4634 12.4 22.6201 11.3533 22.9334 10.52C23.2468 9.68 23.6901 9.05333 24.2634 8.64C24.8368 8.22667 25.5101 8.02 26.2834 8.02C27.0834 8.02 27.7501 8.2 28.2834 8.56C28.8234 8.91333 29.2268 9.41333 29.4934 10.06C29.7668 10.7067 29.9034 11.46 29.9034 12.32V18H27.5434ZM20.8834 18V8.3H22.9434L23.2434 10.22V18H20.8834ZM39.5244 18L39.2244 15.64V11.74C39.2244 11.06 39.0844 10.5567 38.8044 10.23C38.531 9.90333 38.0644 9.74 37.4044 9.74C37.0244 9.74 36.6944 9.79667 36.4144 9.91C36.1344 10.0233 35.9177 10.1867 35.7644 10.4C35.6177 10.6067 35.5444 10.86 35.5444 11.16H32.9644C32.9644 10.4267 33.141 9.83 33.4944 9.37C33.8477 8.90333 34.3544 8.56333 35.0144 8.35C35.681 8.13 36.4777 8.02 37.4044 8.02C38.2444 8.02 38.9777 8.15667 39.6044 8.43C40.231 8.69667 40.7177 9.11 41.0644 9.67C41.411 10.23 41.5844 10.9467 41.5844 11.82V18H39.5244ZM36.3444 18.28C35.511 18.28 34.8144 18.1367 34.2544 17.85C33.701 17.5567 33.2844 17.1733 33.0044 16.7C32.7244 16.2267 32.5844 15.7133 32.5844 15.16C32.5844 14.5467 32.7444 14.0333 33.0644 13.62C33.391 13.2 33.851 12.8867 34.4444 12.68C35.0377 12.4667 35.7377 12.36 36.5444 12.36C37.071 12.36 37.5677 12.4 38.0344 12.48C38.5077 12.56 38.9777 12.6667 39.4444 12.8V14.18C39.0777 14.06 38.6777 13.9667 38.2444 13.9C37.811 13.8333 37.4044 13.8 37.0244 13.8C36.4644 13.8 36.0044 13.9033 35.6444 14.11C35.2844 14.3167 35.1044 14.6667 35.1044 15.16C35.1044 15.52 35.251 15.83 35.5444 16.09C35.8377 16.35 36.3044 16.48 36.9444 16.48C37.431 16.48 37.8444 16.3733 38.1844 16.16C38.5244 15.9467 38.781 15.68 38.9544 15.36C39.1344 15.04 39.2244 14.72 39.2244 14.4H39.7844C39.7844 15.1 39.6544 15.7467 39.3944 16.34C39.1344 16.9267 38.7477 17.3967 38.2344 17.75C37.7277 18.1033 37.0977 18.28 36.3444 18.28Z" fill="white"/>
<path d="M51.7876 18V12.32C51.7876 11.6 51.6142 11.0567 51.2676 10.69C50.9209 10.3233 50.4676 10.14 49.9076 10.14C49.4342 10.14 49.0142 10.27 48.6476 10.53C48.2876 10.79 48.0042 11.1833 47.7976 11.71C47.5909 12.23 47.4876 12.88 47.4876 13.66H46.7076C46.7076 12.4 46.8642 11.3533 47.1776 10.52C47.4909 9.68 47.9342 9.05333 48.5076 8.64C49.0809 8.22667 49.7542 8.02 50.5276 8.02C51.3276 8.02 51.9942 8.2 52.5276 8.56C53.0676 8.91333 53.4709 9.41333 53.7376 10.06C54.0109 10.7067 54.1476 11.46 54.1476 12.32V18H51.7876ZM45.1276 18V8.3H47.1876L47.4876 10.22V18H45.1276ZM58.9685 6.52C58.5085 6.52 58.1485 6.4 57.8885 6.16C57.6352 5.91333 57.5085 5.57333 57.5085 5.14C57.5085 4.72 57.6352 4.38667 57.8885 4.14C58.1485 3.88667 58.5085 3.76 58.9685 3.76C59.4218 3.76 59.7785 3.88667 60.0385 4.14C60.2985 4.38667 60.4285 4.72 60.4285 5.14C60.4285 5.57333 60.2985 5.91333 60.0385 6.16C59.7785 6.4 59.4218 6.52 58.9685 6.52ZM57.7885 18V8.26H60.1485V18H57.7885ZM64.151 18V4.28H66.511V18H64.151ZM73.8648 18.28C72.9314 18.28 72.1281 18.1533 71.4548 17.9C70.7881 17.64 70.2748 17.27 69.9148 16.79C69.5548 16.3033 69.3714 15.72 69.3648 15.04H71.5448C71.5648 15.52 71.7548 15.87 72.1148 16.09C72.4748 16.31 72.9648 16.42 73.5848 16.42C73.9248 16.42 74.2248 16.37 74.4848 16.27C74.7514 16.17 74.9581 16.0333 75.1048 15.86C75.2514 15.6867 75.3248 15.4933 75.3248 15.28C75.3248 15.0067 75.2248 14.7933 75.0248 14.64C74.8314 14.48 74.5181 14.3333 74.0848 14.2L71.9648 13.44C71.2048 13.1667 70.6214 12.8067 70.2148 12.36C69.8081 11.9133 69.6048 11.38 69.6048 10.76C69.6048 9.94 69.9748 9.28 70.7148 8.78C71.4614 8.27333 72.4581 8.02 73.7048 8.02C74.9448 8.02 75.9014 8.29333 76.5748 8.84C77.2548 9.38 77.6048 10.0667 77.6248 10.9H75.4048C75.3714 10.58 75.2181 10.3267 74.9448 10.14C74.6714 9.95333 74.2581 9.86 73.7048 9.86C73.2048 9.86 72.8114 9.96333 72.5248 10.17C72.2448 10.37 72.1048 10.6067 72.1048 10.88C72.1048 11.34 72.4981 11.6867 73.2848 11.92L75.5848 12.78C76.3314 13.0333 76.9114 13.36 77.3248 13.76C77.7381 14.16 77.9448 14.6667 77.9448 15.28C77.9448 15.7933 77.7714 16.28 77.4248 16.74C77.0848 17.1933 76.6081 17.5633 75.9948 17.85C75.3814 18.1367 74.6714 18.28 73.8648 18.28ZM84.3716 18.28C83.5583 18.28 82.815 18.0667 82.1416 17.64C81.475 17.2067 80.9416 16.6033 80.5416 15.83C80.1483 15.05 79.9516 14.14 79.9516 13.1C79.9516 12.0733 80.1416 11.18 80.5216 10.42C80.9083 9.65333 81.4216 9.06333 82.0616 8.65C82.7083 8.23 83.425 8.02 84.2116 8.02C84.9316 8.02 85.555 8.19333 86.0816 8.54C86.6083 8.88 87.0116 9.38667 87.2916 10.06C87.5716 10.7333 87.7116 11.56 87.7116 12.54H86.9716C86.9716 12.0333 86.8683 11.6033 86.6616 11.25C86.455 10.89 86.1816 10.6167 85.8416 10.43C85.5083 10.2367 85.145 10.14 84.7516 10.14C84.2783 10.14 83.8583 10.2633 83.4916 10.51C83.1316 10.7567 82.8483 11.1033 82.6416 11.55C82.435 11.99 82.3316 12.5067 82.3316 13.1C82.3316 13.7133 82.435 14.2467 82.6416 14.7C82.8483 15.1533 83.1316 15.5067 83.4916 15.76C83.8583 16.0133 84.2716 16.14 84.7316 16.14C85.105 16.14 85.4616 16.04 85.8016 15.84C86.1483 15.6333 86.4283 15.3467 86.6416 14.98C86.8616 14.6133 86.9716 14.1867 86.9716 13.7H87.7116C87.7116 14.72 87.5583 15.57 87.2516 16.25C86.9516 16.9233 86.5483 17.43 86.0416 17.77C85.535 18.11 84.9783 18.28 84.3716 18.28ZM87.4116 18L86.9716 15.6V4.28H89.3516V18H87.4116ZM96.8968 18.28C96.0101 18.28 95.2068 18.09 94.4868 17.71C93.7735 17.33 93.2068 16.7633 92.7868 16.01C92.3668 15.25 92.1568 14.3 92.1568 13.16C92.1568 12 92.3668 11.04 92.7868 10.28C93.2068 9.52 93.7735 8.95333 94.4868 8.58C95.2068 8.20667 96.0101 8.02 96.8968 8.02C97.7701 8.02 98.5601 8.20667 99.2668 8.58C99.9801 8.95333 100.547 9.52 100.967 10.28C101.387 11.04 101.597 12 101.597 13.16C101.597 14.3 101.387 15.25 100.967 16.01C100.547 16.7633 99.9801 17.33 99.2668 17.71C98.5601 18.09 97.7701 18.28 96.8968 18.28ZM96.8168 16.22C97.2835 16.22 97.6968 16.1067 98.0568 15.88C98.4235 15.6467 98.7101 15.3033 98.9168 14.85C99.1301 14.3967 99.2368 13.8333 99.2368 13.16C99.2368 12.1333 99.0335 11.36 98.6268 10.84C98.2268 10.32 97.6768 10.06 96.9768 10.06C96.5035 10.06 96.0835 10.1767 95.7168 10.41C95.3501 10.6367 95.0601 10.98 94.8468 11.44C94.6401 11.9 94.5368 12.4733 94.5368 13.16C94.5368 14.1733 94.7401 14.9367 95.1468 15.45C95.5601 15.9633 96.1168 16.22 96.8168 16.22ZM107.685 18.28C107.112 18.28 106.585 18.1733 106.105 17.96C105.632 17.7467 105.252 17.42 104.965 16.98C104.685 16.54 104.545 15.98 104.545 15.3V5.72H106.905V15.22C106.905 16.02 107.285 16.42 108.045 16.42C108.278 16.42 108.512 16.3933 108.745 16.34C108.978 16.2867 109.245 16.2067 109.545 16.1L109.885 17.76C109.512 17.9067 109.148 18.03 108.795 18.13C108.442 18.23 108.072 18.28 107.685 18.28ZM103.185 9.86V8.3H109.545V9.86H103.185ZM115.576 18.28C115.002 18.28 114.476 18.1733 113.996 17.96C113.522 17.7467 113.142 17.42 112.856 16.98C112.576 16.54 112.436 15.98 112.436 15.3V5.72H114.796V15.22C114.796 16.02 115.176 16.42 115.936 16.42C116.169 16.42 116.402 16.3933 116.636 16.34C116.869 16.2867 117.136 16.2067 117.436 16.1L117.776 17.76C117.402 17.9067 117.039 18.03 116.686 18.13C116.332 18.23 115.962 18.28 115.576 18.28ZM111.076 9.86V8.3H117.436V9.86H111.076ZM123.806 18.28C122.98 18.28 122.223 18.0667 121.536 17.64C120.85 17.2133 120.3 16.6167 119.886 15.85C119.473 15.0767 119.266 14.1733 119.266 13.14C119.266 12.0733 119.47 11.1567 119.876 10.39C120.29 9.62333 120.84 9.03667 121.526 8.63C122.213 8.22333 122.973 8.02 123.806 8.02C124.58 8.02 125.246 8.17667 125.806 8.49C126.373 8.79667 126.826 9.21667 127.166 9.75C127.513 10.2767 127.746 10.8733 127.866 11.54C127.986 12.2067 127.993 12.8933 127.886 13.6H121.146V12.32H126.216L125.756 12.62C125.776 12.3067 125.76 11.99 125.706 11.67C125.66 11.35 125.566 11.0567 125.426 10.79C125.286 10.5233 125.086 10.31 124.826 10.15C124.573 9.98333 124.246 9.9 123.846 9.9C123.366 9.9 122.96 10.02 122.626 10.26C122.293 10.5 122.04 10.8267 121.866 11.24C121.693 11.6533 121.606 12.12 121.606 12.64V13.58C121.606 14.1267 121.686 14.61 121.846 15.03C122.013 15.45 122.256 15.78 122.576 16.02C122.903 16.26 123.313 16.38 123.806 16.38C124.266 16.38 124.653 16.2733 124.966 16.06C125.28 15.8467 125.48 15.5267 125.566 15.1H127.946C127.846 15.7267 127.61 16.28 127.236 16.76C126.87 17.2333 126.393 17.6067 125.806 17.88C125.22 18.1467 124.553 18.28 123.806 18.28ZM130.792 18V8.26H133.152V18H130.792ZM132.572 13.74C132.572 12.4667 132.715 11.4133 133.002 10.58C133.288 9.74667 133.672 9.13 134.152 8.73C134.638 8.32333 135.178 8.12 135.772 8.12C135.932 8.12 136.082 8.13 136.222 8.15C136.368 8.17 136.512 8.2 136.652 8.24L136.612 10.6C136.438 10.56 136.252 10.5267 136.052 10.5C135.852 10.4733 135.672 10.46 135.512 10.46C134.992 10.46 134.555 10.5867 134.202 10.84C133.855 11.0867 133.592 11.4533 133.412 11.94C133.238 12.4267 133.152 13.0267 133.152 13.74H132.572Z" fill="white"/>
</svg>
