<svg width="178" height="69" viewBox="0 0 178 69" fill="none" xmlns="http://www.w3.org/2000/svg">
<path d="M91.3601 8.83593C90.1634 6.23319 88.2559 4.02254 85.8578 2.45932C83.4596 0.896094 80.6688 0.0440714 77.8077 0.001664C74.9465 -0.0407434 72.1317 0.728195 69.6885 2.21966C67.2452 3.71113 65.2731 5.86427 64 8.4304L65.7747 9.31322C66.8814 7.08237 68.5959 5.21053 70.7199 3.91393C72.844 2.61732 75.291 1.94885 77.7783 1.98571C80.2657 2.02258 82.6919 2.76329 84.7767 4.12227C86.8615 5.48126 88.5198 7.40309 89.5602 9.66577L91.3601 8.83593Z" fill="#717172"/>
<path d="M76.6399 9.16407C77.8366 11.7668 79.7441 13.9775 82.1422 15.5407C84.5404 17.1039 87.3312 17.9559 90.1923 17.9983C93.0535 18.0407 95.8683 17.2718 98.3116 15.7803C100.755 14.2889 102.727 12.1357 104 9.5696L102.225 8.68678C101.119 10.9176 99.4041 12.7895 97.2801 14.0861C95.156 15.3827 92.709 16.0512 90.2217 16.0143C87.7343 15.9774 85.3081 15.2367 83.2233 13.8777C81.1385 12.5187 79.4802 10.5969 78.4398 8.33423L76.6399 9.16407Z" fill="#46C8C8"/>
<path d="M10.6453 33.2273V41H8.09697V27.9091H10.543V30.0398H10.7049C11.0061 29.3466 11.4777 28.7898 12.1197 28.3693C12.7674 27.9489 13.5828 27.7386 14.5657 27.7386C15.4578 27.7386 16.239 27.9261 16.9095 28.3011C17.5799 28.6705 18.0998 29.2216 18.4691 29.9545C18.8384 30.6875 19.0231 31.5937 19.0231 32.6733V41H16.4748V32.9801C16.4748 32.0312 16.2277 31.2898 15.7333 30.7557C15.239 30.2159 14.56 29.946 13.6964 29.946C13.1055 29.946 12.5799 30.0739 12.1197 30.3295C11.6652 30.5852 11.3044 30.9602 11.0373 31.4545C10.7759 31.9432 10.6453 32.5341 10.6453 33.2273ZM22.9207 41V27.9091H25.469V41H22.9207ZM24.2077 25.8892C23.7645 25.8892 23.3838 25.7415 23.0656 25.446C22.7531 25.1449 22.5969 24.7869 22.5969 24.3722C22.5969 23.9517 22.7531 23.5937 23.0656 23.2983C23.3838 22.9972 23.7645 22.8466 24.2077 22.8466C24.6508 22.8466 25.0287 22.9972 25.3412 23.2983C25.6594 23.5937 25.8184 23.9517 25.8184 24.3722C25.8184 24.7869 25.6594 25.1449 25.3412 25.446C25.0287 25.7415 24.6508 25.8892 24.2077 25.8892ZM31.9256 33.2273V41H29.3773V27.9091H31.8233V30.0398H31.9852C32.2864 29.3466 32.758 28.7898 33.4 28.3693C34.0477 27.9489 34.8631 27.7386 35.846 27.7386C36.7381 27.7386 37.5193 27.9261 38.1898 28.3011C38.8602 28.6705 39.3801 29.2216 39.7494 29.9545C40.1188 30.6875 40.3034 31.5937 40.3034 32.6733V41H37.7551V32.9801C37.7551 32.0312 37.508 31.2898 37.0136 30.7557C36.5193 30.2159 35.8404 29.946 34.9767 29.946C34.3858 29.946 33.8602 30.0739 33.4 30.3295C32.9455 30.5852 32.5847 30.9602 32.3176 31.4545C32.0563 31.9432 31.9256 32.5341 31.9256 33.2273ZM48.0107 41.2898C47.1811 41.2898 46.4311 41.1364 45.7607 40.8295C45.0902 40.517 44.559 40.0653 44.1669 39.4744C43.7806 38.8835 43.5874 38.1591 43.5874 37.3011C43.5874 36.5625 43.7294 35.9545 44.0135 35.4773C44.2976 35 44.6811 34.6222 45.1641 34.3438C45.6471 34.0653 46.1868 33.8551 46.7834 33.7131C47.38 33.571 47.988 33.4631 48.6073 33.3892C49.3914 33.2983 50.0277 33.2244 50.5164 33.1676C51.005 33.1051 51.3601 33.0057 51.5817 32.8693C51.8033 32.733 51.9141 32.5114 51.9141 32.2045V32.1449C51.9141 31.4006 51.7039 30.8239 51.2834 30.4148C50.8686 30.0057 50.2493 29.8011 49.4255 29.8011C48.5675 29.8011 47.8914 29.9915 47.3971 30.3722C46.9084 30.7472 46.5704 31.1648 46.3829 31.625L43.988 31.0795C44.2721 30.2841 44.6868 29.642 45.2323 29.1534C45.7834 28.6591 46.4169 28.3011 47.1329 28.0795C47.8488 27.8523 48.6016 27.7386 49.3914 27.7386C49.9141 27.7386 50.4681 27.8011 51.0533 27.9261C51.6442 28.0455 52.1954 28.267 52.7067 28.5909C53.2238 28.9148 53.6471 29.3778 53.9766 29.9801C54.3061 30.5767 54.4709 31.3523 54.4709 32.3068V41H51.9823V39.2102H51.88C51.7152 39.5398 51.4681 39.8636 51.1385 40.1818C50.809 40.5 50.3857 40.7642 49.8686 40.9744C49.3516 41.1847 48.7323 41.2898 48.0107 41.2898ZM48.5647 39.2443C49.2692 39.2443 49.8715 39.1051 50.3715 38.8267C50.8772 38.5483 51.2607 38.1847 51.5221 37.7358C51.7891 37.2812 51.9226 36.7955 51.9226 36.2784V34.5909C51.8317 34.6818 51.6556 34.767 51.3942 34.8466C51.1385 34.9205 50.8459 34.9858 50.5164 35.0426C50.1868 35.0937 49.8658 35.142 49.5533 35.1875C49.2408 35.2273 48.9794 35.2614 48.7692 35.2898C48.2749 35.3523 47.8232 35.4574 47.4141 35.6051C47.0107 35.7528 46.6868 35.9659 46.4425 36.2443C46.2039 36.517 46.0846 36.8807 46.0846 37.3352C46.0846 37.9659 46.3175 38.4432 46.7834 38.767C47.2493 39.0852 47.8431 39.2443 48.5647 39.2443Z" fill="#46C8C8"/>
<path d="M60.8934 33.2273V41H58.3451V27.9091H60.7911V30.0398H60.953C61.2542 29.3466 61.7258 28.7898 62.3678 28.3693C63.0155 27.9489 63.8309 27.7386 64.8138 27.7386C65.7059 27.7386 66.4871 27.9261 67.1576 28.3011C67.828 28.6705 68.3479 29.2216 68.7173 29.9545C69.0866 30.6875 69.2712 31.5937 69.2712 32.6733V41H66.7229V32.9801C66.7229 32.0312 66.4758 31.2898 65.9815 30.7557C65.4871 30.2159 64.8082 29.946 63.9445 29.946C63.3536 29.946 62.828 30.0739 62.3678 30.3295C61.9133 30.5852 61.5525 30.9602 61.2854 31.4545C61.0241 31.9432 60.8934 32.5341 60.8934 33.2273ZM73.1688 41V27.9091H75.7171V41H73.1688ZM74.4558 25.8892C74.0126 25.8892 73.6319 25.7415 73.3137 25.446C73.0012 25.1449 72.845 24.7869 72.845 24.3722C72.845 23.9517 73.0012 23.5937 73.3137 23.2983C73.6319 22.9972 74.0126 22.8466 74.4558 22.8466C74.899 22.8466 75.2768 22.9972 75.5893 23.2983C75.9075 23.5937 76.0666 23.9517 76.0666 24.3722C76.0666 24.7869 75.9075 25.1449 75.5893 25.446C75.2768 25.7415 74.899 25.8892 74.4558 25.8892ZM82.1737 23.5455V41H79.6254V23.5455H82.1737ZM95.8916 31.1051L93.582 31.5142C93.4854 31.2187 93.332 30.9375 93.1217 30.6705C92.9172 30.4034 92.6388 30.1847 92.2865 30.0142C91.9342 29.8437 91.4939 29.7585 90.9655 29.7585C90.2439 29.7585 89.6416 29.9205 89.1587 30.2443C88.6757 30.5625 88.4342 30.9744 88.4342 31.4801C88.4342 31.9176 88.5962 32.2699 88.92 32.5369C89.2439 32.804 89.7666 33.0227 90.4882 33.1932L92.5678 33.6705C93.7723 33.9489 94.67 34.3778 95.261 34.9574C95.8519 35.5369 96.1473 36.2898 96.1473 37.2159C96.1473 38 95.92 38.6989 95.4655 39.3125C95.0166 39.9205 94.3888 40.3977 93.582 40.7443C92.7808 41.0909 91.8519 41.2642 90.795 41.2642C89.3291 41.2642 88.1331 40.9517 87.207 40.3267C86.2808 39.696 85.7127 38.8011 85.5024 37.642L87.9655 37.267C88.1189 37.9091 88.4342 38.3949 88.9115 38.7244C89.3888 39.0483 90.0109 39.2102 90.778 39.2102C91.6132 39.2102 92.2808 39.0369 92.7808 38.6903C93.2808 38.3381 93.5308 37.9091 93.5308 37.4034C93.5308 36.9943 93.3774 36.6506 93.0706 36.3722C92.7695 36.0937 92.3064 35.8835 91.6814 35.7415L89.4655 35.2557C88.2439 34.9773 87.3405 34.5341 86.7553 33.9261C86.1757 33.3182 85.8859 32.5483 85.8859 31.6165C85.8859 30.8437 86.1019 30.1676 86.5337 29.5881C86.9655 29.0085 87.5621 28.5568 88.3234 28.233C89.0848 27.9034 89.957 27.7386 90.9399 27.7386C92.3547 27.7386 93.4683 28.0455 94.2808 28.6591C95.0933 29.267 95.6303 30.0824 95.8916 31.1051ZM104.33 41.2557C103.273 41.2557 102.33 40.9858 101.5 40.446C100.676 39.9006 100.029 39.125 99.557 38.1193C99.0911 37.108 98.8581 35.8949 98.8581 34.4801C98.8581 33.0653 99.0939 31.8551 99.5655 30.8494C100.043 29.8437 100.696 29.0739 101.526 28.5398C102.355 28.0057 103.296 27.7386 104.347 27.7386C105.159 27.7386 105.813 27.875 106.307 28.1477C106.807 28.4148 107.193 28.7273 107.466 29.0852C107.744 29.4432 107.96 29.7585 108.114 30.0312H108.267V23.5455H110.816V41H108.327V38.9631H108.114C107.96 39.2415 107.739 39.5597 107.449 39.9176C107.165 40.2756 106.773 40.5881 106.273 40.8551C105.773 41.1222 105.125 41.2557 104.33 41.2557ZM104.892 39.0824C105.625 39.0824 106.244 38.8892 106.75 38.5028C107.262 38.1108 107.648 37.5682 107.909 36.875C108.176 36.1818 108.31 35.375 108.31 34.4545C108.31 33.5455 108.179 32.75 107.918 32.0682C107.656 31.3864 107.273 30.8551 106.767 30.4744C106.262 30.0937 105.637 29.9034 104.892 29.9034C104.125 29.9034 103.486 30.1023 102.975 30.5C102.463 30.8977 102.077 31.4403 101.816 32.1278C101.56 32.8153 101.432 33.5909 101.432 34.4545C101.432 35.3295 101.563 36.1165 101.824 36.8153C102.085 37.5142 102.472 38.0682 102.983 38.4773C103.5 38.8807 104.137 39.0824 104.892 39.0824ZM120.447 41.2642C119.22 41.2642 118.149 40.983 117.234 40.4205C116.319 39.858 115.609 39.071 115.103 38.0597C114.597 37.0483 114.345 35.8665 114.345 34.5142C114.345 33.1562 114.597 31.9687 115.103 30.9517C115.609 29.9347 116.319 29.1449 117.234 28.5824C118.149 28.0199 119.22 27.7386 120.447 27.7386C121.674 27.7386 122.745 28.0199 123.66 28.5824C124.575 29.1449 125.285 29.9347 125.791 30.9517C126.296 31.9687 126.549 33.1562 126.549 34.5142C126.549 35.8665 126.296 37.0483 125.791 38.0597C125.285 39.071 124.575 39.858 123.66 40.4205C122.745 40.983 121.674 41.2642 120.447 41.2642ZM120.455 39.125C121.251 39.125 121.91 38.9148 122.433 38.4943C122.955 38.0739 123.342 37.5142 123.592 36.8153C123.847 36.1165 123.975 35.3466 123.975 34.5057C123.975 33.6705 123.847 32.9034 123.592 32.2045C123.342 31.5 122.955 30.9347 122.433 30.5085C121.91 30.0824 121.251 29.8693 120.455 29.8693C119.654 29.8693 118.989 30.0824 118.461 30.5085C117.938 30.9347 117.549 31.5 117.293 32.2045C117.043 32.9034 116.918 33.6705 116.918 34.5057C116.918 35.3466 117.043 36.1165 117.293 36.8153C117.549 37.5142 117.938 38.0739 118.461 38.4943C118.989 38.9148 119.654 39.125 120.455 39.125ZM135.984 27.9091V29.9545H128.834V27.9091H135.984ZM130.751 24.7727H133.3V37.1562C133.3 37.6506 133.374 38.0227 133.521 38.2727C133.669 38.517 133.859 38.6847 134.092 38.7756C134.331 38.8608 134.589 38.9034 134.868 38.9034C135.072 38.9034 135.251 38.8892 135.405 38.8608C135.558 38.8324 135.678 38.8097 135.763 38.7926L136.223 40.8977C136.075 40.9545 135.865 41.0114 135.592 41.0682C135.32 41.1307 134.979 41.1648 134.57 41.1705C133.899 41.1818 133.274 41.0625 132.695 40.8125C132.115 40.5625 131.646 40.1761 131.288 39.6534C130.93 39.1307 130.751 38.4744 130.751 37.6847V24.7727ZM145.394 27.9091V29.9545H138.243V27.9091H145.394ZM140.161 24.7727H142.709V37.1562C142.709 37.6506 142.783 38.0227 142.931 38.2727C143.079 38.517 143.269 38.6847 143.502 38.7756C143.741 38.8608 143.999 38.9034 144.278 38.9034C144.482 38.9034 144.661 38.8892 144.814 38.8608C144.968 38.8324 145.087 38.8097 145.172 38.7926L145.633 40.8977C145.485 40.9545 145.275 41.0114 145.002 41.0682C144.729 41.1307 144.388 41.1648 143.979 41.1705C143.309 41.1818 142.684 41.0625 142.104 40.8125C141.525 40.5625 141.056 40.1761 140.698 39.6534C140.34 39.1307 140.161 38.4744 140.161 37.6847V24.7727ZM154.194 41.2642C152.905 41.2642 151.794 40.9886 150.862 40.4375C149.936 39.8807 149.22 39.0994 148.714 38.0938C148.214 37.0824 147.964 35.8977 147.964 34.5398C147.964 33.1989 148.214 32.017 148.714 30.9943C149.22 29.9716 149.924 29.1733 150.828 28.5994C151.737 28.0256 152.799 27.7386 154.015 27.7386C154.754 27.7386 155.47 27.8608 156.163 28.1051C156.856 28.3494 157.478 28.733 158.03 29.2557C158.581 29.7784 159.015 30.4574 159.334 31.2926C159.652 32.1222 159.811 33.1307 159.811 34.3182V35.2216H149.405V33.3125H157.314C157.314 32.642 157.177 32.0483 156.905 31.5312C156.632 31.0085 156.248 30.5966 155.754 30.2955C155.265 29.9943 154.691 29.8438 154.032 29.8438C153.316 29.8438 152.691 30.0199 152.157 30.3722C151.629 30.7187 151.22 31.1733 150.93 31.7358C150.646 32.2926 150.504 32.8977 150.504 33.5511V35.0426C150.504 35.9176 150.657 36.6619 150.964 37.2756C151.277 37.8892 151.711 38.358 152.268 38.6818C152.825 39 153.476 39.1591 154.22 39.1591C154.703 39.1591 155.143 39.0909 155.541 38.9545C155.939 38.8125 156.282 38.6023 156.572 38.3239C156.862 38.0455 157.084 37.7017 157.237 37.2926L159.649 37.7273C159.456 38.4375 159.109 39.0597 158.609 39.5938C158.115 40.1222 157.493 40.5341 156.743 40.8295C155.998 41.1193 155.149 41.2642 154.194 41.2642ZM163.118 41V27.9091H165.581V29.9886H165.718C165.956 29.2841 166.377 28.7301 166.979 28.3267C167.587 27.9176 168.274 27.7131 169.042 27.7131C169.201 27.7131 169.388 27.7187 169.604 27.7301C169.826 27.7415 169.999 27.7557 170.124 27.7727V30.2102C170.022 30.1818 169.84 30.1506 169.578 30.1165C169.317 30.0767 169.056 30.0568 168.794 30.0568C168.192 30.0568 167.655 30.1847 167.184 30.4403C166.718 30.6903 166.348 31.0398 166.076 31.4886C165.803 31.9318 165.667 32.4375 165.667 33.0057V41H163.118Z" fill="#7C7C7C"/>
<path d="M44.0165 52.4773V55H42.8062V49.1818H43.9824V51.4062H44.0335C44.132 51.1487 44.2911 50.947 44.5108 50.8011C44.7305 50.6534 45.006 50.5795 45.3375 50.5795C45.6405 50.5795 45.9047 50.6458 46.1301 50.7784C46.3574 50.9091 46.5335 51.0975 46.6585 51.3438C46.7854 51.5881 46.8479 51.8807 46.846 52.2216V55H45.6358V52.4375C45.6377 52.1686 45.5695 51.9593 45.4312 51.8097C45.2949 51.66 45.1036 51.5852 44.8574 51.5852C44.6926 51.5852 44.5468 51.6203 44.4199 51.6903C44.2949 51.7604 44.1964 51.8627 44.1244 51.9972C44.0543 52.1297 44.0184 52.2898 44.0165 52.4773ZM50.8367 53.142V50.6364H52.0469V55H50.885V54.2074H50.8396C50.7411 54.4631 50.5772 54.6686 50.3481 54.8239C50.1208 54.9792 49.8433 55.0568 49.5157 55.0568C49.224 55.0568 48.9674 54.9905 48.7458 54.858C48.5242 54.7254 48.3509 54.5369 48.2259 54.2926C48.1028 54.0483 48.0403 53.7557 48.0384 53.4148V50.6364H49.2486V53.1989C49.2505 53.4564 49.3197 53.66 49.456 53.8097C49.5924 53.9593 49.7752 54.0341 50.0043 54.0341C50.1502 54.0341 50.2865 54.0009 50.4134 53.9347C50.5403 53.8665 50.6426 53.7661 50.7202 53.6335C50.7998 53.5009 50.8386 53.3371 50.8367 53.142ZM54.8629 55.071C54.5315 55.071 54.2313 54.9858 53.9624 54.8153C53.6953 54.643 53.4832 54.3902 53.326 54.0568C53.1707 53.7216 53.0931 53.3106 53.0931 52.8239C53.0931 52.3239 53.1735 51.9081 53.3345 51.5767C53.4955 51.2434 53.7095 50.9943 53.9766 50.8295C54.2455 50.6629 54.54 50.5795 54.8601 50.5795C55.1044 50.5795 55.308 50.6212 55.4709 50.7045C55.6357 50.786 55.7682 50.8883 55.8686 51.0114C55.9709 51.1326 56.0485 51.2519 56.1016 51.3693H56.1385V49.1818H57.3459V55H56.1527V54.3011H56.1016C56.0448 54.4223 55.9643 54.5426 55.8601 54.6619C55.7578 54.7794 55.6243 54.8769 55.4595 54.9545C55.2967 55.0322 55.0978 55.071 54.8629 55.071ZM55.2465 54.108C55.4415 54.108 55.6063 54.0549 55.7408 53.9489C55.8771 53.8409 55.9813 53.6903 56.0533 53.4972C56.1271 53.304 56.1641 53.0777 56.1641 52.8182C56.1641 52.5587 56.1281 52.3333 56.0561 52.142C55.9842 51.9508 55.88 51.803 55.7436 51.6989C55.6073 51.5947 55.4415 51.5426 55.2465 51.5426C55.0476 51.5426 54.88 51.5966 54.7436 51.7045C54.6073 51.8125 54.504 51.9621 54.434 52.1534C54.3639 52.3447 54.3288 52.5663 54.3288 52.8182C54.3288 53.072 54.3639 53.2964 54.434 53.4915C54.5059 53.6847 54.6092 53.8362 54.7436 53.946C54.88 54.054 55.0476 54.108 55.2465 54.108ZM62.4566 55.0852C62.0551 55.0852 61.7085 55.0133 61.4168 54.8693C61.1251 54.7254 60.9007 54.5303 60.7435 54.2841C60.5882 54.036 60.5106 53.7595 60.5106 53.4545C60.5106 53.2273 60.556 53.0256 60.6469 52.8494C60.7378 52.6733 60.8647 52.5114 61.0276 52.3636C61.1905 52.214 61.3799 52.0653 61.5958 51.9176L62.7236 51.1761C62.8695 51.0833 62.9765 50.9858 63.0446 50.8835C63.1128 50.7794 63.1469 50.6667 63.1469 50.5455C63.1469 50.4299 63.1005 50.3229 63.0077 50.2244C62.9149 50.1259 62.7833 50.0777 62.6128 50.0795C62.4992 50.0795 62.4007 50.1051 62.3174 50.1562C62.234 50.2055 62.1687 50.2708 62.1213 50.3523C62.0759 50.4318 62.0532 50.5208 62.0532 50.6193C62.0532 50.7405 62.0873 50.8636 62.1554 50.9886C62.2236 51.1136 62.3145 51.2462 62.4282 51.3864C62.5418 51.5246 62.6659 51.6742 62.8003 51.8352L65.5588 55H64.2975L61.9963 52.4375C61.8448 52.2652 61.6933 52.0852 61.5418 51.8977C61.3922 51.7083 61.2672 51.5076 61.1668 51.2955C61.0664 51.0814 61.0162 50.8494 61.0162 50.5994C61.0162 50.3172 61.0816 50.0634 61.2123 49.8381C61.3448 49.6127 61.5304 49.4347 61.7691 49.304C62.0077 49.1714 62.2861 49.1051 62.6043 49.1051C62.9149 49.1051 63.1829 49.1686 63.4083 49.2955C63.6356 49.4205 63.8098 49.5871 63.931 49.7955C64.0541 50.0019 64.1157 50.2292 64.1157 50.4773C64.1157 50.7519 64.0475 51.0009 63.9111 51.2244C63.7767 51.446 63.5873 51.6449 63.3429 51.821L62.1554 52.6761C61.9945 52.7936 61.8751 52.9138 61.7975 53.0369C61.7217 53.1581 61.6838 53.2746 61.6838 53.3864C61.6838 53.5246 61.7179 53.6487 61.7861 53.7585C61.8543 53.8684 61.9509 53.9555 62.0759 54.0199C62.2009 54.0824 62.3477 54.1136 62.5162 54.1136C62.7208 54.1136 62.9225 54.0672 63.1213 53.9744C63.3221 53.8797 63.5039 53.7462 63.6668 53.5739C63.8316 53.3996 63.9632 53.1932 64.0617 52.9545C64.1602 52.7159 64.2094 52.4517 64.2094 52.1619H65.2123C65.2123 52.518 65.1734 52.839 65.0958 53.125C65.0181 53.4091 64.9102 53.6572 64.7719 53.8693C64.6337 54.0795 64.4755 54.2519 64.2975 54.3864C64.2407 54.4223 64.1857 54.4564 64.1327 54.4886C64.0797 54.5208 64.0248 54.5549 63.9679 54.5909C63.752 54.7652 63.5106 54.8911 63.2435 54.9688C62.9784 55.0464 62.716 55.0852 62.4566 55.0852ZM69.4913 53.7443L69.4941 52.2926H69.6702L71.068 50.6364H72.4572L70.5793 52.8295H70.2924L69.4913 53.7443ZM68.3947 55V49.1818H69.6049V55H68.3947ZM71.1219 55L69.8379 53.0994L70.6447 52.2443L72.5396 55H71.1219ZM73.2909 55V50.6364H74.4642V51.3977H74.5097C74.5892 51.1269 74.7227 50.9223 74.9102 50.7841C75.0977 50.6439 75.3136 50.5739 75.558 50.5739C75.6186 50.5739 75.6839 50.5777 75.754 50.5852C75.8241 50.5928 75.8856 50.6032 75.9387 50.6165V51.6903C75.8818 51.6733 75.8032 51.6581 75.7029 51.6449C75.6025 51.6316 75.5106 51.625 75.4273 51.625C75.2493 51.625 75.0902 51.6638 74.95 51.7415C74.8118 51.8172 74.7019 51.9233 74.6205 52.0597C74.5409 52.196 74.5012 52.3532 74.5012 52.5312V55H73.2909ZM78.5728 55.0852C78.1315 55.0852 77.7499 54.9915 77.4279 54.804C77.1079 54.6146 76.8607 54.3513 76.6865 54.0142C76.5122 53.6752 76.4251 53.2822 76.4251 52.8352C76.4251 52.3845 76.5122 51.9905 76.6865 51.6534C76.8607 51.3144 77.1079 51.0511 77.4279 50.8636C77.7499 50.6742 78.1315 50.5795 78.5728 50.5795C79.0141 50.5795 79.3948 50.6742 79.7149 50.8636C80.0368 51.0511 80.2849 51.3144 80.4592 51.6534C80.6334 51.9905 80.7206 52.3845 80.7206 52.8352C80.7206 53.2822 80.6334 53.6752 80.4592 54.0142C80.2849 54.3513 80.0368 54.6146 79.7149 54.804C79.3948 54.9915 79.0141 55.0852 78.5728 55.0852ZM78.5785 54.1477C78.7793 54.1477 78.9469 54.0909 79.0813 53.9773C79.2158 53.8617 79.3171 53.7045 79.3853 53.5057C79.4554 53.3068 79.4904 53.0805 79.4904 52.8267C79.4904 52.5729 79.4554 52.3466 79.3853 52.1477C79.3171 51.9489 79.2158 51.7917 79.0813 51.6761C78.9469 51.5606 78.7793 51.5028 78.5785 51.5028C78.3759 51.5028 78.2054 51.5606 78.0671 51.6761C77.9308 51.7917 77.8276 51.9489 77.7575 52.1477C77.6893 52.3466 77.6552 52.5729 77.6552 52.8267C77.6552 53.0805 77.6893 53.3068 77.7575 53.5057C77.8276 53.7045 77.9308 53.8617 78.0671 53.9773C78.2054 54.0909 78.3759 54.1477 78.5785 54.1477ZM81.7475 56.6364V50.6364H82.9407V51.3693H82.9946C83.0477 51.2519 83.1244 51.1326 83.2248 51.0114C83.327 50.8883 83.4596 50.786 83.6225 50.7045C83.7873 50.6212 83.9918 50.5795 84.2361 50.5795C84.5543 50.5795 84.8479 50.6629 85.1168 50.8295C85.3857 50.9943 85.6007 51.2434 85.7617 51.5767C85.9227 51.9081 86.0032 52.3239 86.0032 52.8239C86.0032 53.3106 85.9246 53.7216 85.7674 54.0568C85.6121 54.3902 85.3999 54.643 85.131 54.8153C84.864 54.9858 84.5647 55.071 84.2333 55.071C83.9984 55.071 83.7986 55.0322 83.6338 54.9545C83.471 54.8769 83.3374 54.7794 83.2333 54.6619C83.1291 54.5426 83.0496 54.4223 82.9946 54.3011H82.9577V56.6364H81.7475ZM82.9321 52.8182C82.9321 53.0777 82.9681 53.304 83.0401 53.4972C83.1121 53.6903 83.2162 53.8409 83.3526 53.9489C83.489 54.0549 83.6547 54.108 83.8498 54.108C84.0467 54.108 84.2134 54.054 84.3498 53.946C84.4861 53.8362 84.5893 53.6847 84.6594 53.4915C84.7314 53.2964 84.7674 53.072 84.7674 52.8182C84.7674 52.5663 84.7323 52.3447 84.6623 52.1534C84.5922 51.9621 84.489 51.8125 84.3526 51.7045C84.2162 51.5966 84.0486 51.5426 83.8498 51.5426C83.6528 51.5426 83.4861 51.5947 83.3498 51.6989C83.2153 51.803 83.1121 51.9508 83.0401 52.142C82.9681 52.3333 82.9321 52.5587 82.9321 52.8182ZM87.05 56.6364V50.6364H88.2432V51.3693H88.2971C88.3502 51.2519 88.4269 51.1326 88.5273 51.0114C88.6295 50.8883 88.7621 50.786 88.925 50.7045C89.0898 50.6212 89.2943 50.5795 89.5386 50.5795C89.8568 50.5795 90.1504 50.6629 90.4193 50.8295C90.6882 50.9943 90.9032 51.2434 91.0642 51.5767C91.2252 51.9081 91.3057 52.3239 91.3057 52.8239C91.3057 53.3106 91.2271 53.7216 91.0699 54.0568C90.9146 54.3902 90.7024 54.643 90.4335 54.8153C90.1665 54.9858 89.8672 55.071 89.5358 55.071C89.3009 55.071 89.1011 55.0322 88.9364 54.9545C88.7735 54.8769 88.6399 54.7794 88.5358 54.6619C88.4316 54.5426 88.3521 54.4223 88.2971 54.3011H88.2602V56.6364H87.05ZM88.2346 52.8182C88.2346 53.0777 88.2706 53.304 88.3426 53.4972C88.4146 53.6903 88.5187 53.8409 88.6551 53.9489C88.7915 54.0549 88.9572 54.108 89.1523 54.108C89.3492 54.108 89.5159 54.054 89.6523 53.946C89.7886 53.8362 89.8918 53.6847 89.9619 53.4915C90.0339 53.2964 90.0699 53.072 90.0699 52.8182C90.0699 52.5663 90.0348 52.3447 89.9648 52.1534C89.8947 51.9621 89.7915 51.8125 89.6551 51.7045C89.5187 51.5966 89.3511 51.5426 89.1523 51.5426C88.9553 51.5426 88.7886 51.5947 88.6523 51.6989C88.5178 51.803 88.4146 51.9508 88.3426 52.142C88.2706 52.3333 88.2346 52.5587 88.2346 52.8182ZM95.9832 51.8807L94.8752 51.9489C94.8563 51.8542 94.8156 51.7689 94.7531 51.6932C94.6906 51.6155 94.6082 51.554 94.5059 51.5085C94.4055 51.4612 94.2852 51.4375 94.1451 51.4375C93.9576 51.4375 93.7995 51.4773 93.6707 51.5568C93.5419 51.6345 93.4775 51.7386 93.4775 51.8693C93.4775 51.9735 93.5192 52.0616 93.6025 52.1335C93.6858 52.2055 93.8288 52.2633 94.0315 52.3068L94.8212 52.4659C95.2455 52.553 95.5618 52.6932 95.7701 52.8864C95.9784 53.0795 96.0826 53.3333 96.0826 53.6477C96.0826 53.9337 95.9983 54.1847 95.8298 54.4006C95.6631 54.6165 95.4339 54.785 95.1423 54.9062C94.8525 55.0256 94.5182 55.0852 94.1394 55.0852C93.5618 55.0852 93.1015 54.965 92.7587 54.7244C92.4178 54.482 92.218 54.1525 92.1593 53.7358L93.3496 53.6733C93.3856 53.8494 93.4727 53.9839 93.611 54.0767C93.7493 54.1676 93.9263 54.2131 94.1423 54.2131C94.3544 54.2131 94.5248 54.1723 94.6536 54.0909C94.7843 54.0076 94.8506 53.9006 94.8525 53.7699C94.8506 53.66 94.8042 53.5701 94.7133 53.5C94.6224 53.428 94.4822 53.3731 94.2928 53.3352L93.5371 53.1847C93.111 53.0994 92.7938 52.9517 92.5854 52.7415C92.379 52.5312 92.2758 52.2633 92.2758 51.9375C92.2758 51.6572 92.3515 51.4157 92.5031 51.2131C92.6565 51.0104 92.8714 50.8542 93.1479 50.7443C93.4263 50.6345 93.7521 50.5795 94.1252 50.5795C94.6763 50.5795 95.1101 50.696 95.4263 50.929C95.7445 51.1619 95.9301 51.4792 95.9832 51.8807ZM99.4057 50.6364V51.5455H96.7779V50.6364H99.4057ZM97.3744 49.5909H98.5847V53.6591C98.5847 53.7708 98.6017 53.858 98.6358 53.9205C98.6699 53.9811 98.7172 54.0237 98.7779 54.0483C98.8404 54.0729 98.9123 54.0852 98.9938 54.0852C99.0506 54.0852 99.1074 54.0805 99.1642 54.071C99.221 54.0597 99.2646 54.0511 99.2949 54.0455L99.4852 54.946C99.4246 54.965 99.3394 54.9867 99.2296 55.0114C99.1197 55.0379 98.9862 55.054 98.829 55.0597C98.5373 55.071 98.2816 55.0322 98.0619 54.9432C97.8441 54.8542 97.6746 54.7159 97.5534 54.5284C97.4322 54.3409 97.3726 54.1042 97.3744 53.8182V49.5909ZM102.376 55.0852C101.927 55.0852 101.541 54.9943 101.217 54.8125C100.895 54.6288 100.647 54.3693 100.472 54.0341C100.298 53.697 100.211 53.2983 100.211 52.8381C100.211 52.3892 100.298 51.9953 100.472 51.6562C100.647 51.3172 100.892 51.053 101.208 50.8636C101.526 50.6742 101.899 50.5795 102.328 50.5795C102.615 50.5795 102.883 50.6259 103.131 50.7188C103.381 50.8097 103.599 50.947 103.785 51.1307C103.972 51.3144 104.118 51.5455 104.222 51.8239C104.327 52.1004 104.379 52.4242 104.379 52.7955V53.1278H100.694V52.3778H103.239C103.239 52.2036 103.202 52.0492 103.126 51.9148C103.05 51.7803 102.945 51.6752 102.81 51.5994C102.678 51.5218 102.524 51.483 102.347 51.483C102.164 51.483 102.001 51.5256 101.859 51.6108C101.719 51.6941 101.609 51.8068 101.529 51.9489C101.45 52.089 101.409 52.2453 101.407 52.4176V53.1307C101.407 53.3466 101.447 53.5331 101.526 53.6903C101.608 53.8475 101.722 53.9688 101.87 54.054C102.018 54.1392 102.193 54.1818 102.396 54.1818C102.53 54.1818 102.653 54.1629 102.765 54.125C102.877 54.0871 102.972 54.0303 103.052 53.9545C103.131 53.8788 103.192 53.786 103.234 53.6761L104.353 53.75C104.296 54.0189 104.18 54.2538 104.004 54.4545C103.829 54.6534 103.604 54.8087 103.328 54.9205C103.053 55.0303 102.736 55.0852 102.376 55.0852ZM105.408 55V50.6364H106.582V51.3977H106.627C106.707 51.1269 106.84 50.9223 107.028 50.7841C107.215 50.6439 107.431 50.5739 107.675 50.5739C107.736 50.5739 107.801 50.5777 107.871 50.5852C107.942 50.5928 108.003 50.6032 108.056 50.6165V51.6903C107.999 51.6733 107.921 51.6581 107.82 51.6449C107.72 51.6316 107.628 51.625 107.545 51.625C107.367 51.625 107.208 51.6638 107.068 51.7415C106.929 51.8172 106.819 51.9233 106.738 52.0597C106.658 52.196 106.619 52.3532 106.619 52.5312V55H105.408ZM110.041 55.0824C109.763 55.0824 109.515 55.0341 109.297 54.9375C109.079 54.839 108.907 54.6941 108.78 54.5028C108.655 54.3097 108.592 54.0691 108.592 53.7812C108.592 53.5388 108.637 53.3352 108.726 53.1705C108.815 53.0057 108.936 52.8731 109.089 52.7727C109.243 52.6723 109.417 52.5966 109.612 52.5455C109.809 52.4943 110.016 52.4583 110.232 52.4375C110.485 52.411 110.69 52.3864 110.845 52.3636C111 52.339 111.113 52.303 111.183 52.2557C111.253 52.2083 111.288 52.1383 111.288 52.0455V52.0284C111.288 51.8485 111.232 51.7093 111.118 51.6108C111.006 51.5123 110.847 51.4631 110.641 51.4631C110.423 51.4631 110.25 51.5114 110.121 51.608C109.992 51.7027 109.907 51.822 109.865 51.9659L108.746 51.875C108.803 51.6098 108.914 51.3807 109.081 51.1875C109.248 50.9924 109.463 50.8428 109.726 50.7386C109.991 50.6326 110.298 50.5795 110.646 50.5795C110.889 50.5795 111.121 50.608 111.342 50.6648C111.566 50.7216 111.764 50.8097 111.936 50.929C112.11 51.0483 112.248 51.2017 112.348 51.3892C112.448 51.5748 112.499 51.7973 112.499 52.0568V55H111.351V54.3949H111.317C111.247 54.5312 111.153 54.6515 111.035 54.7557C110.918 54.858 110.777 54.9384 110.612 54.9972C110.447 55.054 110.257 55.0824 110.041 55.0824ZM110.388 54.2472C110.566 54.2472 110.723 54.2121 110.859 54.142C110.996 54.0701 111.103 53.9735 111.18 53.8523C111.258 53.7311 111.297 53.5937 111.297 53.4403V52.9773C111.259 53.0019 111.207 53.0246 111.141 53.0455C111.076 53.0644 111.003 53.0824 110.922 53.0994C110.84 53.1146 110.759 53.1288 110.678 53.142C110.596 53.1534 110.522 53.1638 110.456 53.1733C110.314 53.1941 110.19 53.2273 110.084 53.2727C109.978 53.3182 109.895 53.3797 109.837 53.4574C109.778 53.5331 109.749 53.6278 109.749 53.7415C109.749 53.9062 109.808 54.0322 109.928 54.1193C110.049 54.2045 110.202 54.2472 110.388 54.2472ZM113.677 56.6364V50.6364H114.871V51.3693H114.925C114.978 51.2519 115.054 51.1326 115.155 51.0114C115.257 50.8883 115.39 50.786 115.552 50.7045C115.717 50.6212 115.922 50.5795 116.166 50.5795C116.484 50.5795 116.778 50.6629 117.047 50.8295C117.316 50.9943 117.531 51.2434 117.692 51.5767C117.853 51.9081 117.933 52.3239 117.933 52.8239C117.933 53.3106 117.855 53.7216 117.697 54.0568C117.542 54.3902 117.33 54.643 117.061 54.8153C116.794 54.9858 116.495 55.071 116.163 55.071C115.928 55.071 115.729 55.0322 115.564 54.9545C115.401 54.8769 115.267 54.7794 115.163 54.6619C115.059 54.5426 114.98 54.4223 114.925 54.3011H114.888V56.6364H113.677ZM114.862 52.8182C114.862 53.0777 114.898 53.304 114.97 53.4972C115.042 53.6903 115.146 53.8409 115.283 53.9489C115.419 54.0549 115.585 54.108 115.78 54.108C115.977 54.108 116.143 54.054 116.28 53.946C116.416 53.8362 116.519 53.6847 116.589 53.4915C116.661 53.2964 116.697 53.072 116.697 52.8182C116.697 52.5663 116.662 52.3447 116.592 52.1534C116.522 51.9621 116.419 51.8125 116.283 51.7045C116.146 51.5966 115.979 51.5426 115.78 51.5426C115.583 51.5426 115.416 51.5947 115.28 51.6989C115.145 51.803 115.042 51.9508 114.97 52.142C114.898 52.3333 114.862 52.5587 114.862 52.8182ZM118.98 55V50.6364H120.19V55H118.98ZM119.588 50.0739C119.408 50.0739 119.254 50.0142 119.125 49.8949C118.998 49.7737 118.935 49.6288 118.935 49.4602C118.935 49.2936 118.998 49.1506 119.125 49.0312C119.254 48.91 119.408 48.8494 119.588 48.8494C119.768 48.8494 119.921 48.91 120.048 49.0312C120.177 49.1506 120.241 49.2936 120.241 49.4602C120.241 49.6288 120.177 49.7737 120.048 49.8949C119.921 50.0142 119.768 50.0739 119.588 50.0739Z" fill="#46C8C8"/>
</svg>
