<svg width="161" height="53" viewBox="0 0 161 53" fill="none" xmlns="http://www.w3.org/2000/svg">
<path d="M88.3601 8.83593C87.1634 6.23319 85.2559 4.02254 82.8578 2.45932C80.4596 0.896094 77.6688 0.0440714 74.8077 0.001664C71.9465 -0.0407434 69.1317 0.728195 66.6885 2.21966C64.2452 3.71113 62.2731 5.86428 61 8.4304L62.7747 9.31323C63.8814 7.08237 65.5959 5.21053 67.7199 3.91393C69.844 2.61732 72.291 1.94885 74.7783 1.98571C77.2657 2.02258 79.6919 2.76329 81.7767 4.12227C83.8615 5.48126 85.5198 7.40309 86.5602 9.66577L88.3601 8.83593Z" fill="white"/>
<path d="M88.3601 8.83593C87.1634 6.23319 85.2559 4.02254 82.8578 2.45932C80.4596 0.896094 77.6688 0.0440714 74.8077 0.001664C71.9465 -0.0407434 69.1317 0.728195 66.6885 2.21966C64.2452 3.71113 62.2731 5.86428 61 8.4304L62.7747 9.31323C63.8814 7.08237 65.5959 5.21053 67.7199 3.91393C69.844 2.61732 72.291 1.94885 74.7783 1.98571C77.2657 2.02258 79.6919 2.76329 81.7767 4.12227C83.8615 5.48126 85.5198 7.40309 86.5602 9.66577L88.3601 8.83593Z" fill="white"/>
<path d="M73.6399 9.16407C74.8366 11.7668 76.7441 13.9775 79.1422 15.5407C81.5404 17.1039 84.3312 17.9559 87.1923 17.9983C90.0535 18.0407 92.8683 17.2718 95.3115 15.7803C97.7548 14.2889 99.7269 12.1357 101 9.5696L99.2253 8.68678C98.1186 10.9176 96.4041 12.7895 94.2801 14.0861C92.156 15.3827 89.709 16.0512 87.2217 16.0143C84.7343 15.9774 82.3081 15.2367 80.2233 13.8777C78.1385 12.5187 76.4802 10.5969 75.4398 8.33423L73.6399 9.16407Z" fill="white"/>
<path d="M73.6399 9.16407C74.8366 11.7668 76.7441 13.9775 79.1422 15.5407C81.5404 17.1039 84.3312 17.9559 87.1923 17.9983C90.0535 18.0407 92.8683 17.2718 95.3115 15.7803C97.7548 14.2889 99.7269 12.1357 101 9.5696L99.2253 8.68678C98.1186 10.9176 96.4041 12.7895 94.2801 14.0861C92.156 15.3827 89.709 16.0512 87.2217 16.0143C84.7343 15.9774 82.3081 15.2367 80.2233 13.8777C78.1385 12.5187 76.4802 10.5969 75.4398 8.33423L73.6399 9.16407Z" fill="white"/>
<path d="M3.88852 30.125V38H1.87716V24.9091H3.82034V26.9545H3.99079C4.29761 26.2898 4.76352 25.7557 5.38852 25.3523C6.01352 24.9432 6.82034 24.7386 7.80897 24.7386C8.69534 24.7386 9.47091 24.9205 10.1357 25.2841C10.8005 25.642 11.3175 26.1875 11.6868 26.9205C12.0561 27.6477 12.2408 28.5682 12.2408 29.6818V38H10.2294V29.8182C10.2294 28.7898 9.96238 27.9886 9.42829 27.4148C8.8942 26.8352 8.16125 26.5455 7.22943 26.5455C6.58738 26.5455 6.01352 26.6847 5.50784 26.9631C5.00784 27.2415 4.61295 27.6477 4.32318 28.1818C4.03341 28.7159 3.88852 29.3636 3.88852 30.125ZM16.3962 38V24.9091H18.4076V38H16.3962ZM17.4189 22.7273C17.0269 22.7273 16.6888 22.5938 16.4047 22.3267C16.1263 22.0597 15.9871 21.7386 15.9871 21.3636C15.9871 20.9886 16.1263 20.6676 16.4047 20.4006C16.6888 20.1335 17.0269 20 17.4189 20C17.811 20 18.1462 20.1335 18.4246 20.4006C18.7087 20.6676 18.8508 20.9886 18.8508 21.3636C18.8508 21.7386 18.7087 22.0597 18.4246 22.3267C18.1462 22.5938 17.811 22.7273 17.4189 22.7273ZM24.5829 30.125V38H22.5715V24.9091H24.5147V26.9545H24.6852C24.992 26.2898 25.4579 25.7557 26.0829 25.3523C26.7079 24.9432 27.5147 24.7386 28.5033 24.7386C29.3897 24.7386 30.1653 24.9205 30.8301 25.2841C31.4948 25.642 32.0119 26.1875 32.3812 26.9205C32.7505 27.6477 32.9352 28.5682 32.9352 29.6818V38H30.9238V29.8182C30.9238 28.7898 30.6568 27.9886 30.1227 27.4148C29.5886 26.8352 28.8556 26.5455 27.9238 26.5455C27.2818 26.5455 26.7079 26.6847 26.2022 26.9631C25.7022 27.2415 25.3073 27.6477 25.0176 28.1818C24.7278 28.7159 24.5829 29.3636 24.5829 30.125ZM40.9429 38.3068C40.1133 38.3068 39.3605 38.1506 38.6843 37.8381C38.0082 37.5199 37.4713 37.0625 37.0735 36.4659C36.6758 35.8636 36.477 35.1364 36.477 34.2841C36.477 33.5341 36.6247 32.9261 36.9201 32.4602C37.2156 31.9886 37.6105 31.6193 38.1048 31.3523C38.5991 31.0852 39.1446 30.8864 39.7412 30.7557C40.3434 30.6193 40.9485 30.5114 41.5565 30.4318C42.352 30.3295 42.9968 30.2528 43.4912 30.2017C43.9912 30.1449 44.3548 30.0511 44.5821 29.9205C44.815 29.7898 44.9315 29.5625 44.9315 29.2386V29.1705C44.9315 28.3295 44.7014 27.6761 44.2412 27.2102C43.7866 26.7443 43.0963 26.5114 42.1701 26.5114C41.2099 26.5114 40.4571 26.7216 39.9116 27.142C39.3662 27.5625 38.9826 28.0114 38.761 28.4886L36.852 27.8068C37.1929 27.0114 37.6474 26.392 38.2156 25.9489C38.7895 25.5 39.4145 25.1875 40.0906 25.0114C40.7724 24.8295 41.4429 24.7386 42.102 24.7386C42.5224 24.7386 43.0054 24.7898 43.5508 24.892C44.102 24.9886 44.6332 25.1903 45.1446 25.4972C45.6616 25.804 46.0906 26.267 46.4315 26.8864C46.7724 27.5057 46.9429 28.3352 46.9429 29.375V38H44.9315V36.2273H44.8292C44.6929 36.5114 44.4656 36.8153 44.1474 37.1392C43.8292 37.4631 43.4059 37.7386 42.8775 37.9659C42.3491 38.1932 41.7042 38.3068 40.9429 38.3068ZM41.2497 36.5C42.0451 36.5 42.7156 36.3438 43.261 36.0312C43.8122 35.7188 44.227 35.3153 44.5054 34.821C44.7895 34.3267 44.9315 33.8068 44.9315 33.2614V31.4205C44.8463 31.5227 44.6588 31.6165 44.369 31.7017C44.0849 31.7812 43.7554 31.8523 43.3804 31.9148C43.011 31.9716 42.6503 32.0227 42.298 32.0682C41.9514 32.108 41.6701 32.142 41.4542 32.1705C40.9315 32.2386 40.4429 32.3494 39.9883 32.5028C39.5395 32.6506 39.1758 32.875 38.8974 33.1761C38.6247 33.4716 38.4883 33.875 38.4883 34.3864C38.4883 35.0852 38.7468 35.6136 39.2639 35.9716C39.7866 36.3239 40.4485 36.5 41.2497 36.5ZM53.1054 30.125V38H51.094V24.9091H53.0372V26.9545H53.2077C53.5145 26.2898 53.9804 25.7557 54.6054 25.3523C55.2304 24.9432 56.0372 24.7386 57.0258 24.7386C57.9122 24.7386 58.6878 24.9205 59.3526 25.2841C60.0173 25.642 60.5344 26.1875 60.9037 26.9205C61.273 27.6477 61.4577 28.5682 61.4577 29.6818V38H59.4463V29.8182C59.4463 28.7898 59.1793 27.9886 58.6452 27.4148C58.1111 26.8352 57.3781 26.5455 56.4463 26.5455C55.8043 26.5455 55.2304 26.6847 54.7247 26.9631C54.2247 27.2415 53.8298 27.6477 53.5401 28.1818C53.2503 28.7159 53.1054 29.3636 53.1054 30.125ZM65.6131 38V24.9091H67.6245V38H65.6131ZM66.6358 22.7273C66.2438 22.7273 65.9057 22.5938 65.6216 22.3267C65.3432 22.0597 65.204 21.7386 65.204 21.3636C65.204 20.9886 65.3432 20.6676 65.6216 20.4006C65.9057 20.1335 66.2438 20 66.6358 20C67.0279 20 67.3631 20.1335 67.6415 20.4006C67.9256 20.6676 68.0676 20.9886 68.0676 21.3636C68.0676 21.7386 67.9256 22.0597 67.6415 22.3267C67.3631 22.5938 67.0279 22.7273 66.6358 22.7273ZM73.7998 20.5455V38H71.7884V20.5455H73.7998ZM87.2364 27.8409L85.4296 28.3523C85.316 28.0511 85.1484 27.7585 84.9268 27.4744C84.7109 27.1847 84.4154 26.946 84.0404 26.7585C83.6654 26.571 83.1853 26.4773 82.6001 26.4773C81.7989 26.4773 81.1313 26.6619 80.5972 27.0312C80.0688 27.3949 79.8046 27.858 79.8046 28.4205C79.8046 28.9205 79.9864 29.3153 80.3501 29.6051C80.7137 29.8949 81.2819 30.1364 82.0546 30.3295L83.9978 30.8068C85.1683 31.0909 86.0404 31.5256 86.6143 32.1108C87.1882 32.6903 87.4751 33.4375 87.4751 34.3523C87.4751 35.1023 87.2592 35.7727 86.8274 36.3636C86.4012 36.9545 85.8046 37.4205 85.0376 37.7614C84.2705 38.1023 83.3785 38.2727 82.3614 38.2727C81.0262 38.2727 79.9211 37.983 79.0461 37.4034C78.1711 36.8239 77.6171 35.9773 77.3842 34.8636L79.2933 34.3864C79.4751 35.0909 79.8188 35.6193 80.3245 35.9716C80.8359 36.3239 81.5035 36.5 82.3274 36.5C83.2649 36.5 84.0092 36.3011 84.5603 35.9034C85.1171 35.5 85.3955 35.017 85.3955 34.4545C85.3955 34 85.2364 33.6193 84.9183 33.3125C84.6001 33 84.1114 32.767 83.4524 32.6136L81.2705 32.1023C80.0717 31.8182 79.191 31.3778 78.6285 30.7812C78.0717 30.179 77.7933 29.4261 77.7933 28.5227C77.7933 27.7841 78.0007 27.1307 78.4154 26.5625C78.8359 25.9943 79.4069 25.5483 80.1285 25.2244C80.8558 24.9006 81.6796 24.7386 82.6001 24.7386C83.8955 24.7386 84.9126 25.0227 85.6512 25.5909C86.3955 26.1591 86.9239 26.9091 87.2364 27.8409ZM95.926 38.2727C94.8351 38.2727 93.872 37.9972 93.0368 37.446C92.2015 36.8892 91.5481 36.1051 91.0765 35.0938C90.6049 34.0767 90.3691 32.875 90.3691 31.4886C90.3691 30.1136 90.6049 28.9205 91.0765 27.9091C91.5481 26.8977 92.2044 26.1165 93.0453 25.5653C93.8862 25.0142 94.8578 24.7386 95.9601 24.7386C96.8123 24.7386 97.4856 24.8807 97.9799 25.1648C98.4799 25.4432 98.8606 25.7614 99.122 26.1193C99.389 26.4716 99.5964 26.7614 99.7441 26.9886H99.9146V20.5455H101.926V38H99.9828V35.9886H99.7441C99.5964 36.2273 99.3862 36.5284 99.1135 36.892C98.8407 37.25 98.4515 37.571 97.9458 37.8551C97.4402 38.1335 96.7669 38.2727 95.926 38.2727ZM96.1987 36.4659C97.0055 36.4659 97.6873 36.2557 98.2441 35.8352C98.801 35.4091 99.2243 34.821 99.514 34.071C99.8038 33.3153 99.9487 32.4432 99.9487 31.4545C99.9487 30.4773 99.8066 29.6222 99.5226 28.8892C99.2385 28.1506 98.818 27.5767 98.2612 27.1676C97.7044 26.7528 97.0169 26.5455 96.1987 26.5455C95.3464 26.5455 94.6362 26.7642 94.068 27.2017C93.5055 27.6335 93.0822 28.2216 92.7981 28.9659C92.5197 29.7045 92.3805 30.5341 92.3805 31.4545C92.3805 32.3864 92.5226 33.233 92.8066 33.9943C93.0964 34.75 93.5226 35.3523 94.0851 35.8011C94.6532 36.2443 95.3578 36.4659 96.1987 36.4659ZM111.687 38.2727C110.505 38.2727 109.468 37.9915 108.576 37.429C107.69 36.8665 106.997 36.0795 106.497 35.0682C106.003 34.0568 105.755 32.875 105.755 31.5227C105.755 30.1591 106.003 28.9687 106.497 27.9517C106.997 26.9347 107.69 26.1449 108.576 25.5824C109.468 25.0199 110.505 24.7386 111.687 24.7386C112.869 24.7386 113.903 25.0199 114.789 25.5824C115.682 26.1449 116.375 26.9347 116.869 27.9517C117.369 28.9687 117.619 30.1591 117.619 31.5227C117.619 32.875 117.369 34.0568 116.869 35.0682C116.375 36.0795 115.682 36.8665 114.789 37.429C113.903 37.9915 112.869 38.2727 111.687 38.2727ZM111.687 36.4659C112.585 36.4659 113.324 36.2358 113.903 35.7756C114.483 35.3153 114.912 34.7102 115.19 33.9602C115.468 33.2102 115.608 32.3977 115.608 31.5227C115.608 30.6477 115.468 29.8324 115.19 29.0767C114.912 28.321 114.483 27.7102 113.903 27.2443C113.324 26.7784 112.585 26.5455 111.687 26.5455C110.789 26.5455 110.051 26.7784 109.471 27.2443C108.892 27.7102 108.463 28.321 108.184 29.0767C107.906 29.8324 107.767 30.6477 107.767 31.5227C107.767 32.3977 107.906 33.2102 108.184 33.9602C108.463 34.7102 108.892 35.3153 109.471 35.7756C110.051 36.2358 110.789 36.4659 111.687 36.4659ZM126.863 24.9091V26.6136H120.078V24.9091H126.863ZM122.056 21.7727H124.067V34.25C124.067 34.8182 124.149 35.2443 124.314 35.5284C124.485 35.8068 124.701 35.9943 124.962 36.0909C125.229 36.1818 125.51 36.2273 125.806 36.2273C126.027 36.2273 126.209 36.2159 126.351 36.1932C126.493 36.1648 126.607 36.142 126.692 36.125L127.101 37.9318C126.965 37.983 126.774 38.0341 126.53 38.0852C126.286 38.142 125.976 38.1705 125.601 38.1705C125.033 38.1705 124.476 38.0483 123.931 37.804C123.391 37.5597 122.942 37.1875 122.584 36.6875C122.232 36.1875 122.056 35.5568 122.056 34.7955V21.7727ZM136.061 24.9091V26.6136H129.277V24.9091H136.061ZM131.254 21.7727H133.266V34.25C133.266 34.8182 133.348 35.2443 133.513 35.5284C133.683 35.8068 133.899 35.9943 134.161 36.0909C134.428 36.1818 134.709 36.2273 135.004 36.2273C135.226 36.2273 135.408 36.2159 135.55 36.1932C135.692 36.1648 135.806 36.142 135.891 36.125L136.3 37.9318C136.164 37.983 135.973 38.0341 135.729 38.0852C135.485 38.142 135.175 38.1705 134.8 38.1705C134.232 38.1705 133.675 38.0483 133.129 37.804C132.59 37.5597 132.141 37.1875 131.783 36.6875C131.431 36.1875 131.254 35.5568 131.254 34.7955V21.7727ZM144.915 38.2727C143.653 38.2727 142.565 37.9943 141.651 37.4375C140.742 36.875 140.04 36.0909 139.546 35.0852C139.057 34.0739 138.813 32.8977 138.813 31.5568C138.813 30.2159 139.057 29.0341 139.546 28.0114C140.04 26.983 140.727 26.1818 141.608 25.608C142.494 25.0284 143.528 24.7386 144.71 24.7386C145.392 24.7386 146.065 24.8523 146.73 25.0795C147.395 25.3068 148 25.6761 148.546 26.1875C149.091 26.6932 149.526 27.3636 149.85 28.1989C150.173 29.0341 150.335 30.0625 150.335 31.2841V32.1364H140.244V30.3977H148.29C148.29 29.6591 148.142 29 147.847 28.4205C147.557 27.8409 147.142 27.3835 146.602 27.0483C146.068 26.7131 145.438 26.5455 144.71 26.5455C143.909 26.5455 143.216 26.7443 142.631 27.142C142.051 27.5341 141.605 28.0455 141.293 28.6761C140.98 29.3068 140.824 29.983 140.824 30.7045V31.8636C140.824 32.8523 140.994 33.6903 141.335 34.3778C141.682 35.0597 142.162 35.5795 142.776 35.9375C143.389 36.2898 144.102 36.4659 144.915 36.4659C145.443 36.4659 145.921 36.392 146.347 36.2443C146.778 36.0909 147.151 35.8636 147.463 35.5625C147.776 35.2557 148.017 34.875 148.188 34.4205L150.131 34.9659C149.926 35.625 149.582 36.2045 149.1 36.7045C148.617 37.1989 148.02 37.5852 147.31 37.8636C146.6 38.1364 145.801 38.2727 144.915 38.2727ZM153.875 38V24.9091H155.818V26.8864H155.955C156.193 26.2386 156.625 25.7131 157.25 25.3097C157.875 24.9062 158.58 24.7045 159.364 24.7045C159.511 24.7045 159.696 24.7074 159.918 24.7131C160.139 24.7187 160.307 24.7273 160.42 24.7386V26.7841C160.352 26.767 160.196 26.7415 159.952 26.7074C159.713 26.6676 159.46 26.6477 159.193 26.6477C158.557 26.6477 157.989 26.7812 157.489 27.0483C156.994 27.3097 156.602 27.6733 156.312 28.1392C156.028 28.5994 155.886 29.125 155.886 29.7159V38H153.875Z" fill="white"/>
<path d="M40.6471 46.7188V50H39.809V42.7273H40.6471V45.3977H40.7181C40.846 45.116 41.0377 44.8923 41.2934 44.7266C41.5515 44.5585 41.8947 44.4744 42.3232 44.4744C42.6949 44.4744 43.0204 44.549 43.2998 44.6982C43.5792 44.8449 43.7958 45.071 43.9497 45.3764C44.1059 45.6795 44.184 46.0653 44.184 46.5341V50H43.346V46.5909C43.346 46.1577 43.2335 45.8227 43.0086 45.5859C42.7861 45.3468 42.4771 45.2273 42.0818 45.2273C41.8071 45.2273 41.5609 45.2853 41.3431 45.4013C41.1277 45.5173 40.9572 45.6866 40.8318 45.9091C40.7087 46.1316 40.6471 46.4015 40.6471 46.7188ZM49.1547 47.7699V44.5455H49.9928V50H49.1547V49.0767H49.0979C48.9701 49.3537 48.7712 49.5893 48.5013 49.7834C48.2314 49.9751 47.8905 50.071 47.4786 50.071C47.1377 50.071 46.8347 49.9964 46.5695 49.8473C46.3044 49.6958 46.096 49.4685 45.9445 49.1655C45.793 48.8601 45.7172 48.4754 45.7172 48.0114V44.5455H46.5553V47.9545C46.5553 48.3523 46.6666 48.6695 46.8891 48.9062C47.114 49.143 47.4005 49.2614 47.7485 49.2614C47.9568 49.2614 48.1687 49.2081 48.3841 49.1016C48.6019 48.995 48.7842 48.8317 48.931 48.6115C49.0802 48.3913 49.1547 48.1108 49.1547 47.7699ZM53.5874 50.1136C53.1329 50.1136 52.7316 49.9988 52.3836 49.7692C52.0356 49.5372 51.7633 49.2105 51.5669 48.7891C51.3704 48.3653 51.2721 47.8646 51.2721 47.2869C51.2721 46.714 51.3704 46.2169 51.5669 45.7955C51.7633 45.3741 52.0368 45.0485 52.3872 44.8189C52.7375 44.5893 53.1424 44.4744 53.6017 44.4744C53.9568 44.4744 54.2373 44.5336 54.4433 44.652C54.6516 44.768 54.8102 44.9006 54.9191 45.0497C55.0304 45.1965 55.1168 45.3172 55.1784 45.4119H55.2494V42.7273H56.0874V50H55.2778V49.1619H55.1784C55.1168 49.2614 55.0292 49.3868 54.9156 49.5384C54.8019 49.6875 54.6398 49.8213 54.4291 49.9396C54.2184 50.0556 53.9378 50.1136 53.5874 50.1136ZM53.7011 49.3608C54.0373 49.3608 54.3213 49.2732 54.5534 49.098C54.7854 48.9205 54.9617 48.6754 55.0825 48.3629C55.2032 48.0481 55.2636 47.6847 55.2636 47.2727C55.2636 46.8655 55.2044 46.5092 55.086 46.2038C54.9677 45.8961 54.7925 45.657 54.5605 45.4865C54.3285 45.3137 54.042 45.2273 53.7011 45.2273C53.346 45.2273 53.05 45.3184 52.8133 45.5007C52.5789 45.6806 52.4026 45.9257 52.2842 46.2358C52.1682 46.5436 52.1102 46.8892 52.1102 47.2727C52.1102 47.661 52.1694 48.0137 52.2877 48.331C52.4085 48.6458 52.586 48.8968 52.8204 49.0838C53.0571 49.2685 53.3507 49.3608 53.7011 49.3608ZM59.7984 50.0994C59.3202 50.0994 58.9082 50.0118 58.5626 49.8366C58.2169 49.6615 57.9506 49.4212 57.7636 49.1158C57.5766 48.8104 57.483 48.4612 57.483 48.0682C57.483 47.7652 57.547 47.4964 57.6748 47.2621C57.805 47.0253 57.9838 46.8063 58.211 46.6051C58.4407 46.4015 58.7046 46.1979 59.0029 45.9943L60.0541 45.2131C60.26 45.0781 60.4246 44.9337 60.5477 44.7798C60.6731 44.6259 60.7359 44.4247 60.7359 44.1761C60.7359 43.9915 60.6542 43.8127 60.4909 43.6399C60.3299 43.4671 60.118 43.3807 59.8552 43.3807C59.6705 43.3807 59.5072 43.428 59.3651 43.5227C59.2255 43.6151 59.1154 43.7334 59.0349 43.8778C58.9568 44.0199 58.9177 44.1667 58.9177 44.3182C58.9177 44.4886 58.9639 44.6615 59.0562 44.8366C59.1509 45.0095 59.2704 45.187 59.4149 45.3693C59.5616 45.5492 59.7132 45.7339 59.8694 45.9233L63.2075 50H62.199L59.4433 46.6761C59.1876 46.3684 58.9556 46.089 58.7472 45.8381C58.5389 45.5871 58.3732 45.3397 58.2501 45.0959C58.127 44.852 58.0654 44.5881 58.0654 44.304C58.0654 43.9773 58.1376 43.6908 58.282 43.4446C58.4288 43.196 58.6336 43.0031 58.8964 42.8658C59.1615 42.7261 59.4717 42.6562 59.8268 42.6562C60.1914 42.6562 60.5051 42.7273 60.7678 42.8693C61.0306 43.009 61.233 43.1948 61.3751 43.4268C61.5171 43.6565 61.5882 43.9062 61.5882 44.1761C61.5882 44.5241 61.5017 44.826 61.3289 45.0817C61.1561 45.3374 60.9205 45.5753 60.6222 45.7955L59.1734 46.875C58.8467 47.1165 58.6253 47.3509 58.5093 47.5781C58.3933 47.8054 58.3353 47.9687 58.3353 48.0682C58.3353 48.2955 58.3945 48.5073 58.5129 48.7038C58.6312 48.9003 58.7981 49.0589 59.0136 49.1797C59.229 49.3004 59.4811 49.3608 59.77 49.3608C60.0446 49.3608 60.3121 49.3028 60.5725 49.1868C60.8329 49.0684 61.0685 48.898 61.2792 48.6754C61.4923 48.4529 61.6604 48.1854 61.7835 47.8729C61.9089 47.5604 61.9717 47.2088 61.9717 46.8182H62.7813C62.7813 47.3011 62.7257 47.6953 62.6144 48.0007C62.5032 48.3061 62.3777 48.5452 62.238 48.718C62.0983 48.8909 61.9859 49.0199 61.9007 49.1051C61.8722 49.1406 61.8462 49.1761 61.8225 49.2116C61.7989 49.2472 61.7728 49.2827 61.7444 49.3182C61.51 49.581 61.2141 49.7775 60.8566 49.9077C60.4991 50.0355 60.1464 50.0994 59.7984 50.0994ZM64.9165 48.0114L64.9023 46.9744H65.0727L67.4591 44.5455H68.496L65.9534 47.1165H65.8824L64.9165 48.0114ZM64.1352 50V42.7273H64.9733V50H64.1352ZM67.6011 50L65.4704 47.3011L66.067 46.7188L68.6665 50H67.6011ZM69.5747 50V44.5455H70.3843V45.3693H70.4411C70.5406 45.0994 70.7205 44.8804 70.9809 44.7124C71.2413 44.5443 71.5349 44.4602 71.8616 44.4602C71.9231 44.4602 72.0001 44.4614 72.0924 44.4638C72.1847 44.4661 72.2546 44.4697 72.3019 44.4744V45.3267C72.2735 45.3196 72.2084 45.3089 72.1066 45.2947C72.0072 45.2782 71.9018 45.2699 71.7906 45.2699C71.5254 45.2699 71.2887 45.3255 71.0803 45.4368C70.8744 45.5457 70.711 45.6972 70.5903 45.8913C70.4719 46.0831 70.4127 46.3021 70.4127 46.5483V50H69.5747ZM75.3453 50.1136C74.8528 50.1136 74.4208 49.9964 74.0491 49.7621C73.6798 49.5277 73.391 49.1998 73.1826 48.7784C72.9767 48.357 72.8737 47.8646 72.8737 47.3011C72.8737 46.733 72.9767 46.237 73.1826 45.8132C73.391 45.3894 73.6798 45.0604 74.0491 44.826C74.4208 44.5916 74.8528 44.4744 75.3453 44.4744C75.8377 44.4744 76.2686 44.5916 76.6379 44.826C77.0096 45.0604 77.2984 45.3894 77.5044 45.8132C77.7127 46.237 77.8169 46.733 77.8169 47.3011C77.8169 47.8646 77.7127 48.357 77.5044 48.7784C77.2984 49.1998 77.0096 49.5277 76.6379 49.7621C76.2686 49.9964 75.8377 50.1136 75.3453 50.1136ZM75.3453 49.3608C75.7193 49.3608 76.0271 49.2649 76.2686 49.0732C76.51 48.8814 76.6888 48.6293 76.8048 48.3168C76.9208 48.0043 76.9788 47.6657 76.9788 47.3011C76.9788 46.9366 76.9208 46.5968 76.8048 46.282C76.6888 45.9671 76.51 45.7126 76.2686 45.5185C76.0271 45.3243 75.7193 45.2273 75.3453 45.2273C74.9712 45.2273 74.6634 45.3243 74.422 45.5185C74.1805 45.7126 74.0017 45.9671 73.8857 46.282C73.7697 46.5968 73.7117 46.9366 73.7117 47.3011C73.7117 47.6657 73.7697 48.0043 73.8857 48.3168C74.0017 48.6293 74.1805 48.8814 74.422 49.0732C74.6634 49.2649 74.9712 49.3608 75.3453 49.3608ZM79.0961 52.0455V44.5455H79.9058V45.4119H80.0052C80.0668 45.3172 80.152 45.1965 80.2609 45.0497C80.3722 44.9006 80.5308 44.768 80.7368 44.652C80.9451 44.5336 81.2268 44.4744 81.5819 44.4744C82.0412 44.4744 82.4461 44.5893 82.7964 44.8189C83.1468 45.0485 83.4202 45.3741 83.6167 45.7955C83.8132 46.2169 83.9115 46.714 83.9115 47.2869C83.9115 47.8646 83.8132 48.3653 83.6167 48.7891C83.4202 49.2105 83.148 49.5372 82.8 49.7692C82.452 49.9988 82.0507 50.1136 81.5961 50.1136C81.2458 50.1136 80.9652 50.0556 80.7545 49.9396C80.5438 49.8213 80.3817 49.6875 80.268 49.5384C80.1544 49.3868 80.0668 49.2614 80.0052 49.1619H79.9342V52.0455H79.0961ZM79.92 47.2727C79.92 47.6847 79.9804 48.0481 80.1011 48.3629C80.2219 48.6754 80.3982 48.9205 80.6302 49.098C80.8622 49.2732 81.1463 49.3608 81.4825 49.3608C81.8329 49.3608 82.1253 49.2685 82.3596 49.0838C82.5964 48.8968 82.7739 48.6458 82.8923 48.331C83.0131 48.0137 83.0734 47.661 83.0734 47.2727C83.0734 46.8892 83.0142 46.5436 82.8959 46.2358C82.7799 45.9257 82.6035 45.6806 82.3667 45.5007C82.1324 45.3184 81.8376 45.2273 81.4825 45.2273C81.1416 45.2273 80.8551 45.3137 80.6231 45.4865C80.3911 45.657 80.2159 45.8961 80.0976 46.2038C79.9792 46.5092 79.92 46.8655 79.92 47.2727ZM85.1899 52.0455V44.5455H85.9996V45.4119H86.099C86.1605 45.3172 86.2458 45.1965 86.3547 45.0497C86.4659 44.9006 86.6246 44.768 86.8305 44.652C87.0389 44.5336 87.3206 44.4744 87.6757 44.4744C88.135 44.4744 88.5398 44.5893 88.8902 44.8189C89.2406 45.0485 89.514 45.3741 89.7105 45.7955C89.907 46.2169 90.0052 46.714 90.0052 47.2869C90.0052 47.8646 89.907 48.3653 89.7105 48.7891C89.514 49.2105 89.2417 49.5372 88.8937 49.7692C88.5457 49.9988 88.1444 50.1136 87.6899 50.1136C87.3395 50.1136 87.059 50.0556 86.8483 49.9396C86.6376 49.8213 86.4754 49.6875 86.3618 49.5384C86.2481 49.3868 86.1605 49.2614 86.099 49.1619H86.028V52.0455H85.1899ZM86.0138 47.2727C86.0138 47.6847 86.0741 48.0481 86.1949 48.3629C86.3156 48.6754 86.492 48.9205 86.724 49.098C86.956 49.2732 87.2401 49.3608 87.5763 49.3608C87.9266 49.3608 88.219 49.2685 88.4534 49.0838C88.6901 48.8968 88.8677 48.6458 88.9861 48.331C89.1068 48.0137 89.1672 47.661 89.1672 47.2727C89.1672 46.8892 89.108 46.5436 88.9896 46.2358C88.8736 45.9257 88.6972 45.6806 88.4605 45.5007C88.2261 45.3184 87.9314 45.2273 87.5763 45.2273C87.2354 45.2273 86.9489 45.3137 86.7169 45.4865C86.4849 45.657 86.3097 45.8961 86.1913 46.2038C86.0729 46.5092 86.0138 46.8655 86.0138 47.2727ZM95.1473 45.767L94.3944 45.9801C94.3471 45.8546 94.2773 45.7327 94.1849 45.6143C94.095 45.4936 93.9719 45.3942 93.8156 45.3161C93.6594 45.2379 93.4593 45.1989 93.2155 45.1989C92.8817 45.1989 92.6035 45.2758 92.3809 45.4297C92.1608 45.5812 92.0507 45.7741 92.0507 46.0085C92.0507 46.2169 92.1265 46.3814 92.278 46.5021C92.4295 46.6229 92.6662 46.7235 92.9882 46.804L93.7979 47.0028C94.2855 47.1212 94.6489 47.3023 94.8881 47.5462C95.1272 47.7876 95.2467 48.099 95.2467 48.4801C95.2467 48.7926 95.1568 49.072 94.9768 49.3182C94.7993 49.5644 94.5507 49.7585 94.2311 49.9006C93.9115 50.0426 93.5398 50.1136 93.116 50.1136C92.5597 50.1136 92.0992 49.9929 91.7346 49.7514C91.3701 49.5099 91.1392 49.1572 91.0422 48.6932L91.8376 48.4943C91.9134 48.7879 92.0566 49.008 92.2673 49.1548C92.4804 49.3016 92.7586 49.375 93.1018 49.375C93.4925 49.375 93.8026 49.2921 94.0322 49.1264C94.2642 48.9583 94.3802 48.7571 94.3802 48.5227C94.3802 48.3333 94.314 48.1747 94.1814 48.0469C94.0488 47.9167 93.8452 47.8196 93.5706 47.7557L92.6615 47.5426C92.162 47.4242 91.795 47.2408 91.5606 46.9922C91.3286 46.7412 91.2126 46.4276 91.2126 46.0511C91.2126 45.7434 91.299 45.4711 91.4719 45.2344C91.647 44.9976 91.885 44.8118 92.1856 44.6768C92.4887 44.5419 92.8319 44.4744 93.2155 44.4744C93.7552 44.4744 94.179 44.5928 94.4868 44.8295C94.7969 45.0663 95.0171 45.3788 95.1473 45.767ZM98.8804 44.5455V45.2557H96.0537V44.5455H98.8804ZM96.8776 43.2386H97.7156V48.4375C97.7156 48.6742 97.75 48.8518 97.8186 48.9702C97.8896 49.0862 97.9796 49.1643 98.0885 49.2045C98.1998 49.2424 98.317 49.2614 98.4401 49.2614C98.5324 49.2614 98.6082 49.2566 98.6673 49.2472C98.7265 49.2353 98.7739 49.2259 98.8094 49.2188L98.9798 49.9716C98.923 49.9929 98.8437 50.0142 98.7419 50.0355C98.6401 50.0592 98.5111 50.071 98.3548 50.071C98.1181 50.071 97.8861 50.0201 97.6588 49.9183C97.4339 49.8165 97.2469 49.6615 97.0977 49.4531C96.951 49.2448 96.8776 48.982 96.8776 48.6648V43.2386ZM102.369 50.1136C101.844 50.1136 101.39 49.9976 101.009 49.7656C100.631 49.5312 100.338 49.2045 100.132 48.7855C99.9286 48.3641 99.8268 47.8741 99.8268 47.3153C99.8268 46.7566 99.9286 46.2642 100.132 45.8381C100.338 45.4096 100.625 45.0758 100.992 44.8366C101.361 44.5952 101.792 44.4744 102.284 44.4744C102.568 44.4744 102.849 44.5218 103.126 44.6165C103.403 44.7112 103.655 44.8651 103.882 45.0781C104.109 45.2888 104.291 45.5682 104.426 45.9162C104.56 46.2642 104.628 46.6927 104.628 47.2017V47.5568H100.423V46.8324H103.776C103.776 46.5246 103.714 46.25 103.591 46.0085C103.47 45.767 103.297 45.5765 103.073 45.4368C102.85 45.2971 102.587 45.2273 102.284 45.2273C101.95 45.2273 101.662 45.3101 101.418 45.4759C101.176 45.6392 100.99 45.8523 100.86 46.1151C100.73 46.3778 100.665 46.6596 100.665 46.9602V47.4432C100.665 47.8551 100.736 48.2043 100.878 48.4908C101.022 48.7749 101.222 48.9915 101.478 49.1406C101.734 49.2874 102.031 49.3608 102.369 49.3608C102.59 49.3608 102.788 49.33 102.966 49.2685C103.146 49.2045 103.301 49.1098 103.431 48.9844C103.561 48.8565 103.662 48.6979 103.733 48.5085L104.543 48.7358C104.457 49.0104 104.314 49.2519 104.113 49.4602C103.912 49.6662 103.663 49.8272 103.367 49.9432C103.071 50.0568 102.739 50.1136 102.369 50.1136ZM105.903 50V44.5455H106.712V45.3693H106.769C106.869 45.0994 107.049 44.8804 107.309 44.7124C107.569 44.5443 107.863 44.4602 108.19 44.4602C108.251 44.4602 108.328 44.4614 108.421 44.4638C108.513 44.4661 108.583 44.4697 108.63 44.4744V45.3267C108.602 45.3196 108.537 45.3089 108.435 45.2947C108.335 45.2782 108.23 45.2699 108.119 45.2699C107.854 45.2699 107.617 45.3255 107.408 45.4368C107.203 45.5457 107.039 45.6972 106.918 45.8913C106.8 46.0831 106.741 46.3021 106.741 46.5483V50H105.903ZM111.229 50.1278C110.883 50.1278 110.569 50.0627 110.288 49.9325C110.006 49.8 109.782 49.6094 109.616 49.3608C109.451 49.1098 109.368 48.8068 109.368 48.4517C109.368 48.1392 109.429 47.8859 109.552 47.6918C109.676 47.4953 109.84 47.3414 110.046 47.2301C110.252 47.1188 110.479 47.036 110.728 46.9815C110.979 46.9247 111.231 46.8797 111.484 46.8466C111.816 46.804 112.084 46.772 112.29 46.7507C112.499 46.727 112.65 46.688 112.745 46.6335C112.842 46.5791 112.891 46.4844 112.891 46.3494V46.321C112.891 45.9706 112.795 45.6984 112.603 45.5043C112.414 45.3101 112.126 45.2131 111.74 45.2131C111.34 45.2131 111.026 45.3007 110.799 45.4759C110.572 45.651 110.412 45.8381 110.32 46.0369L109.524 45.7528C109.666 45.4214 109.855 45.1634 110.092 44.9787C110.331 44.7917 110.592 44.6615 110.873 44.5881C111.158 44.5123 111.437 44.4744 111.712 44.4744C111.887 44.4744 112.088 44.4957 112.315 44.5384C112.545 44.5786 112.766 44.6626 112.979 44.7905C113.195 44.9183 113.373 45.1113 113.516 45.3693C113.658 45.6274 113.729 45.973 113.729 46.4062V50H112.891V49.2614H112.848C112.791 49.3797 112.696 49.5064 112.564 49.6413C112.431 49.7763 112.255 49.8911 112.035 49.9858C111.815 50.0805 111.546 50.1278 111.229 50.1278ZM111.356 49.375C111.688 49.375 111.967 49.3099 112.195 49.1797C112.424 49.0495 112.597 48.8814 112.713 48.6754C112.831 48.4695 112.891 48.2528 112.891 48.0256V47.2585C112.855 47.3011 112.777 47.3402 112.656 47.3757C112.538 47.4089 112.4 47.4384 112.244 47.4645C112.09 47.4882 111.94 47.5095 111.793 47.5284C111.649 47.545 111.532 47.5592 111.442 47.571C111.224 47.5994 111.02 47.6456 110.831 47.7095C110.644 47.7711 110.492 47.8646 110.376 47.9901C110.263 48.1132 110.206 48.2812 110.206 48.4943C110.206 48.7855 110.314 49.0057 110.529 49.1548C110.747 49.3016 111.023 49.375 111.356 49.375ZM115.258 52.0455V44.5455H116.068V45.4119H116.167C116.229 45.3172 116.314 45.1965 116.423 45.0497C116.534 44.9006 116.693 44.768 116.899 44.652C117.107 44.5336 117.389 44.4744 117.744 44.4744C118.203 44.4744 118.608 44.5893 118.959 44.8189C119.309 45.0485 119.582 45.3741 119.779 45.7955C119.975 46.2169 120.074 46.714 120.074 47.2869C120.074 47.8646 119.975 48.3653 119.779 48.7891C119.582 49.2105 119.31 49.5372 118.962 49.7692C118.614 49.9988 118.213 50.1136 117.758 50.1136C117.408 50.1136 117.127 50.0556 116.917 49.9396C116.706 49.8213 116.544 49.6875 116.43 49.5384C116.316 49.3868 116.229 49.2614 116.167 49.1619H116.096V52.0455H115.258ZM116.082 47.2727C116.082 47.6847 116.142 48.0481 116.263 48.3629C116.384 48.6754 116.56 48.9205 116.792 49.098C117.024 49.2732 117.308 49.3608 117.645 49.3608C117.995 49.3608 118.287 49.2685 118.522 49.0838C118.758 48.8968 118.936 48.6458 119.054 48.331C119.175 48.0137 119.236 47.661 119.236 47.2727C119.236 46.8892 119.176 46.5436 119.058 46.2358C118.942 45.9257 118.766 45.6806 118.529 45.5007C118.294 45.3184 118 45.2273 117.645 45.2273C117.304 45.2273 117.017 45.3137 116.785 45.4865C116.553 45.657 116.378 45.8961 116.26 46.2038C116.141 46.5092 116.082 46.8655 116.082 47.2727ZM121.352 50V44.5455H122.19V50H121.352ZM121.778 43.6364C121.615 43.6364 121.474 43.5807 121.356 43.4695C121.24 43.3582 121.182 43.2244 121.182 43.0682C121.182 42.9119 121.24 42.7782 121.356 42.6669C121.474 42.5556 121.615 42.5 121.778 42.5C121.941 42.5 122.081 42.5556 122.197 42.6669C122.316 42.7782 122.375 42.9119 122.375 43.0682C122.375 43.2244 122.316 43.3582 122.197 43.4695C122.081 43.5807 121.941 43.6364 121.778 43.6364Z" fill="white"/>
</svg>
