<svg width="165" height="54" viewBox="0 0 165 54" fill="none" xmlns="http://www.w3.org/2000/svg">
<path d="M83.3601 8.83593C82.1634 6.23319 80.2559 4.02254 77.8578 2.45932C75.4596 0.896094 72.6688 0.0440714 69.8077 0.001664C66.9465 -0.0407434 64.1317 0.728195 61.6885 2.21966C59.2452 3.71113 57.2731 5.86427 56 8.4304L57.7747 9.31322C58.8814 7.08237 60.5959 5.21053 62.7199 3.91393C64.844 2.61732 67.291 1.94885 69.7783 1.98571C72.2657 2.02258 74.6919 2.76329 76.7767 4.12227C78.8615 5.48126 80.5198 7.40309 81.5602 9.66577L83.3601 8.83593Z" fill="white"/>
<path d="M83.3601 8.83593C82.1634 6.23319 80.2559 4.02254 77.8578 2.45932C75.4596 0.896094 72.6688 0.0440714 69.8077 0.001664C66.9465 -0.0407434 64.1317 0.728195 61.6885 2.21966C59.2452 3.71113 57.2731 5.86427 56 8.4304L57.7747 9.31322C58.8814 7.08237 60.5959 5.21053 62.7199 3.91393C64.844 2.61732 67.291 1.94885 69.7783 1.98571C72.2657 2.02258 74.6919 2.76329 76.7767 4.12227C78.8615 5.48126 80.5198 7.40309 81.5602 9.66577L83.3601 8.83593Z" fill="white"/>
<path d="M68.6399 9.16407C69.8366 11.7668 71.7441 13.9775 74.1422 15.5407C76.5404 17.1039 79.3312 17.9559 82.1923 17.9983C85.0535 18.0407 87.8683 17.2718 90.3116 15.7803C92.7548 14.2889 94.7269 12.1357 96 9.5696L94.2253 8.68678C93.1186 10.9176 91.4041 12.7895 89.2801 14.0861C87.156 15.3827 84.709 16.0512 82.2217 16.0143C79.7343 15.9774 77.3081 15.2367 75.2233 13.8777C73.1385 12.5187 71.4802 10.5969 70.4398 8.33423L68.6399 9.16407Z" fill="white"/>
<path d="M68.6399 9.16407C69.8366 11.7668 71.7441 13.9775 74.1422 15.5407C76.5404 17.1039 79.3312 17.9559 82.1923 17.9983C85.0535 18.0407 87.8683 17.2718 90.3116 15.7803C92.7548 14.2889 94.7269 12.1357 96 9.5696L94.2253 8.68678C93.1186 10.9176 91.4041 12.7895 89.2801 14.0861C87.156 15.3827 84.709 16.0512 82.2217 16.0143C79.7343 15.9774 77.3081 15.2367 75.2233 13.8777C73.1385 12.5187 71.4802 10.5969 70.4398 8.33423L68.6399 9.16407Z" fill="white"/>
<path d="M4.64527 33.2273V41H2.09697V27.9091H4.54299V30.0398H4.70493C5.00606 29.3466 5.47765 28.7898 6.1197 28.3693C6.76743 27.9489 7.58277 27.7386 8.56572 27.7386C9.45777 27.7386 10.239 27.9261 10.9095 28.3011C11.5799 28.6705 12.0998 29.2216 12.4691 29.9545C12.8384 30.6875 13.0231 31.5937 13.0231 32.6733V41H10.4748V32.9801C10.4748 32.0312 10.2277 31.2898 9.73334 30.7557C9.23902 30.2159 8.56004 29.946 7.6964 29.946C7.10549 29.946 6.57993 30.0739 6.1197 30.3295C5.66515 30.5852 5.30436 30.9602 5.03731 31.4545C4.77595 31.9432 4.64527 32.5341 4.64527 33.2273ZM16.9207 41V27.9091H19.469V41H16.9207ZM18.2077 25.8892C17.7645 25.8892 17.3838 25.7415 17.0656 25.446C16.7531 25.1449 16.5969 24.7869 16.5969 24.3722C16.5969 23.9517 16.7531 23.5937 17.0656 23.2983C17.3838 22.9972 17.7645 22.8466 18.2077 22.8466C18.6508 22.8466 19.0287 22.9972 19.3412 23.2983C19.6594 23.5937 19.8184 23.9517 19.8184 24.3722C19.8184 24.7869 19.6594 25.1449 19.3412 25.446C19.0287 25.7415 18.6508 25.8892 18.2077 25.8892ZM25.9256 33.2273V41H23.3773V27.9091H25.8233V30.0398H25.9852C26.2864 29.3466 26.758 28.7898 27.4 28.3693C28.0477 27.9489 28.8631 27.7386 29.846 27.7386C30.7381 27.7386 31.5193 27.9261 32.1898 28.3011C32.8602 28.6705 33.3801 29.2216 33.7494 29.9545C34.1188 30.6875 34.3034 31.5937 34.3034 32.6733V41H31.7551V32.9801C31.7551 32.0312 31.508 31.2898 31.0136 30.7557C30.5193 30.2159 29.8404 29.946 28.9767 29.946C28.3858 29.946 27.8602 30.0739 27.4 30.3295C26.9455 30.5852 26.5847 30.9602 26.3176 31.4545C26.0563 31.9432 25.9256 32.5341 25.9256 33.2273ZM42.0107 41.2898C41.1811 41.2898 40.4311 41.1364 39.7607 40.8295C39.0902 40.517 38.559 40.0653 38.1669 39.4744C37.7806 38.8835 37.5874 38.1591 37.5874 37.3011C37.5874 36.5625 37.7294 35.9545 38.0135 35.4773C38.2976 35 38.6811 34.6222 39.1641 34.3438C39.6471 34.0653 40.1868 33.8551 40.7834 33.7131C41.38 33.571 41.988 33.4631 42.6073 33.3892C43.3914 33.2983 44.0277 33.2244 44.5164 33.1676C45.005 33.1051 45.3601 33.0057 45.5817 32.8693C45.8033 32.733 45.9141 32.5114 45.9141 32.2045V32.1449C45.9141 31.4006 45.7039 30.8239 45.2834 30.4148C44.8686 30.0057 44.2493 29.8011 43.4255 29.8011C42.5675 29.8011 41.8914 29.9915 41.3971 30.3722C40.9084 30.7472 40.5704 31.1648 40.3829 31.625L37.988 31.0795C38.2721 30.2841 38.6868 29.642 39.2323 29.1534C39.7834 28.6591 40.4169 28.3011 41.1329 28.0795C41.8488 27.8523 42.6016 27.7386 43.3914 27.7386C43.9141 27.7386 44.4681 27.8011 45.0533 27.9261C45.6442 28.0455 46.1954 28.267 46.7067 28.5909C47.2238 28.9148 47.6471 29.3778 47.9766 29.9801C48.3061 30.5767 48.4709 31.3523 48.4709 32.3068V41H45.9823V39.2102H45.88C45.7152 39.5398 45.4681 39.8636 45.1385 40.1818C44.809 40.5 44.3857 40.7642 43.8686 40.9744C43.3516 41.1847 42.7323 41.2898 42.0107 41.2898ZM42.5647 39.2443C43.2692 39.2443 43.8715 39.1051 44.3715 38.8267C44.8772 38.5483 45.2607 38.1847 45.5221 37.7358C45.7891 37.2812 45.9226 36.7955 45.9226 36.2784V34.5909C45.8317 34.6818 45.6556 34.767 45.3942 34.8466C45.1385 34.9205 44.8459 34.9858 44.5164 35.0426C44.1868 35.0937 43.8658 35.142 43.5533 35.1875C43.2408 35.2273 42.9794 35.2614 42.7692 35.2898C42.2749 35.3523 41.8232 35.4574 41.4141 35.6051C41.0107 35.7528 40.6868 35.9659 40.4425 36.2443C40.2039 36.517 40.0846 36.8807 40.0846 37.3352C40.0846 37.9659 40.3175 38.4432 40.7834 38.767C41.2493 39.0852 41.8431 39.2443 42.5647 39.2443ZM54.8934 33.2273V41H52.3451V27.9091H54.7911V30.0398H54.953C55.2542 29.3466 55.7258 28.7898 56.3678 28.3693C57.0155 27.9489 57.8309 27.7386 58.8138 27.7386C59.7059 27.7386 60.4871 27.9261 61.1576 28.3011C61.828 28.6705 62.3479 29.2216 62.7173 29.9545C63.0866 30.6875 63.2712 31.5937 63.2712 32.6733V41H60.7229V32.9801C60.7229 32.0312 60.4758 31.2898 59.9815 30.7557C59.4871 30.2159 58.8082 29.946 57.9445 29.946C57.3536 29.946 56.828 30.0739 56.3678 30.3295C55.9133 30.5852 55.5525 30.9602 55.2854 31.4545C55.0241 31.9432 54.8934 32.5341 54.8934 33.2273ZM67.1688 41V27.9091H69.7171V41H67.1688ZM68.4558 25.8892C68.0126 25.8892 67.6319 25.7415 67.3137 25.446C67.0012 25.1449 66.845 24.7869 66.845 24.3722C66.845 23.9517 67.0012 23.5937 67.3137 23.2983C67.6319 22.9972 68.0126 22.8466 68.4558 22.8466C68.899 22.8466 69.2768 22.9972 69.5893 23.2983C69.9075 23.5937 70.0666 23.9517 70.0666 24.3722C70.0666 24.7869 69.9075 25.1449 69.5893 25.446C69.2768 25.7415 68.899 25.8892 68.4558 25.8892ZM76.1737 23.5455V41H73.6254V23.5455H76.1737ZM89.8916 31.1051L87.582 31.5142C87.4854 31.2187 87.332 30.9375 87.1217 30.6705C86.9172 30.4034 86.6388 30.1847 86.2865 30.0142C85.9342 29.8437 85.4939 29.7585 84.9655 29.7585C84.2439 29.7585 83.6416 29.9205 83.1587 30.2443C82.6757 30.5625 82.4342 30.9744 82.4342 31.4801C82.4342 31.9176 82.5962 32.2699 82.92 32.5369C83.2439 32.804 83.7666 33.0227 84.4882 33.1932L86.5678 33.6705C87.7723 33.9489 88.67 34.3778 89.261 34.9574C89.8519 35.5369 90.1473 36.2898 90.1473 37.2159C90.1473 38 89.92 38.6989 89.4655 39.3125C89.0166 39.9205 88.3888 40.3977 87.582 40.7443C86.7808 41.0909 85.8519 41.2642 84.795 41.2642C83.3291 41.2642 82.1331 40.9517 81.207 40.3267C80.2808 39.696 79.7127 38.8011 79.5024 37.642L81.9655 37.267C82.1189 37.9091 82.4342 38.3949 82.9115 38.7244C83.3888 39.0483 84.0109 39.2102 84.778 39.2102C85.6132 39.2102 86.2808 39.0369 86.7808 38.6903C87.2808 38.3381 87.5308 37.9091 87.5308 37.4034C87.5308 36.9943 87.3774 36.6506 87.0706 36.3722C86.7695 36.0937 86.3064 35.8835 85.6814 35.7415L83.4655 35.2557C82.2439 34.9773 81.3405 34.5341 80.7553 33.9261C80.1757 33.3182 79.8859 32.5483 79.8859 31.6165C79.8859 30.8437 80.1019 30.1676 80.5337 29.5881C80.9655 29.0085 81.5621 28.5568 82.3234 28.233C83.0848 27.9034 83.957 27.7386 84.9399 27.7386C86.3547 27.7386 87.4683 28.0455 88.2808 28.6591C89.0933 29.267 89.6303 30.0824 89.8916 31.1051ZM98.3297 41.2557C97.2729 41.2557 96.3297 40.9858 95.5002 40.446C94.6763 39.9006 94.0286 39.125 93.557 38.1193C93.0911 37.108 92.8581 35.8949 92.8581 34.4801C92.8581 33.0653 93.0939 31.8551 93.5655 30.8494C94.0428 29.8437 94.6962 29.0739 95.5257 28.5398C96.3553 28.0057 97.2956 27.7386 98.3468 27.7386C99.1593 27.7386 99.8127 27.875 100.307 28.1477C100.807 28.4148 101.193 28.7273 101.466 29.0852C101.744 29.4432 101.96 29.7585 102.114 30.0312H102.267V23.5455H104.816V41H102.327V38.9631H102.114C101.96 39.2415 101.739 39.5597 101.449 39.9176C101.165 40.2756 100.773 40.5881 100.273 40.8551C99.7729 41.1222 99.1252 41.2557 98.3297 41.2557ZM98.8922 39.0824C99.6252 39.0824 100.244 38.8892 100.75 38.5028C101.262 38.1108 101.648 37.5682 101.909 36.875C102.176 36.1818 102.31 35.375 102.31 34.4545C102.31 33.5455 102.179 32.75 101.918 32.0682C101.656 31.3864 101.273 30.8551 100.767 30.4744C100.262 30.0937 99.6365 29.9034 98.8922 29.9034C98.1252 29.9034 97.486 30.1023 96.9746 30.5C96.4632 30.8977 96.0769 31.4403 95.8155 32.1278C95.5598 32.8153 95.432 33.5909 95.432 34.4545C95.432 35.3295 95.5627 36.1165 95.824 36.8153C96.0854 37.5142 96.4718 38.0682 96.9831 38.4773C97.5002 38.8807 98.1365 39.0824 98.8922 39.0824ZM114.447 41.2642C113.22 41.2642 112.149 40.983 111.234 40.4205C110.319 39.858 109.609 39.071 109.103 38.0597C108.597 37.0483 108.345 35.8665 108.345 34.5142C108.345 33.1562 108.597 31.9687 109.103 30.9517C109.609 29.9347 110.319 29.1449 111.234 28.5824C112.149 28.0199 113.22 27.7386 114.447 27.7386C115.674 27.7386 116.745 28.0199 117.66 28.5824C118.575 29.1449 119.285 29.9347 119.791 30.9517C120.296 31.9687 120.549 33.1562 120.549 34.5142C120.549 35.8665 120.296 37.0483 119.791 38.0597C119.285 39.071 118.575 39.858 117.66 40.4205C116.745 40.983 115.674 41.2642 114.447 41.2642ZM114.455 39.125C115.251 39.125 115.91 38.9148 116.433 38.4943C116.955 38.0739 117.342 37.5142 117.592 36.8153C117.847 36.1165 117.975 35.3466 117.975 34.5057C117.975 33.6705 117.847 32.9034 117.592 32.2045C117.342 31.5 116.955 30.9347 116.433 30.5085C115.91 30.0824 115.251 29.8693 114.455 29.8693C113.654 29.8693 112.989 30.0824 112.461 30.5085C111.938 30.9347 111.549 31.5 111.293 32.2045C111.043 32.9034 110.918 33.6705 110.918 34.5057C110.918 35.3466 111.043 36.1165 111.293 36.8153C111.549 37.5142 111.938 38.0739 112.461 38.4943C112.989 38.9148 113.654 39.125 114.455 39.125ZM129.984 27.9091V29.9545H122.834V27.9091H129.984ZM124.751 24.7727H127.3V37.1562C127.3 37.6506 127.374 38.0227 127.521 38.2727C127.669 38.517 127.859 38.6847 128.092 38.7756C128.331 38.8608 128.589 38.9034 128.868 38.9034C129.072 38.9034 129.251 38.8892 129.405 38.8608C129.558 38.8324 129.678 38.8097 129.763 38.7926L130.223 40.8977C130.075 40.9545 129.865 41.0114 129.592 41.0682C129.32 41.1307 128.979 41.1648 128.57 41.1705C127.899 41.1818 127.274 41.0625 126.695 40.8125C126.115 40.5625 125.646 40.1761 125.288 39.6534C124.93 39.1307 124.751 38.4744 124.751 37.6847V24.7727ZM139.394 27.9091V29.9545H132.243V27.9091H139.394ZM134.161 24.7727H136.709V37.1562C136.709 37.6506 136.783 38.0227 136.931 38.2727C137.079 38.517 137.269 38.6847 137.502 38.7756C137.741 38.8608 137.999 38.9034 138.278 38.9034C138.482 38.9034 138.661 38.8892 138.814 38.8608C138.968 38.8324 139.087 38.8097 139.172 38.7926L139.633 40.8977C139.485 40.9545 139.275 41.0114 139.002 41.0682C138.729 41.1307 138.388 41.1648 137.979 41.1705C137.309 41.1818 136.684 41.0625 136.104 40.8125C135.525 40.5625 135.056 40.1761 134.698 39.6534C134.34 39.1307 134.161 38.4744 134.161 37.6847V24.7727ZM148.194 41.2642C146.905 41.2642 145.794 40.9886 144.862 40.4375C143.936 39.8807 143.22 39.0994 142.714 38.0938C142.214 37.0824 141.964 35.8977 141.964 34.5398C141.964 33.1989 142.214 32.017 142.714 30.9943C143.22 29.9716 143.924 29.1733 144.828 28.5994C145.737 28.0256 146.799 27.7386 148.015 27.7386C148.754 27.7386 149.47 27.8608 150.163 28.1051C150.856 28.3494 151.478 28.733 152.03 29.2557C152.581 29.7784 153.015 30.4574 153.334 31.2926C153.652 32.1222 153.811 33.1307 153.811 34.3182V35.2216H143.405V33.3125H151.314C151.314 32.642 151.177 32.0483 150.905 31.5312C150.632 31.0085 150.248 30.5966 149.754 30.2955C149.265 29.9943 148.691 29.8438 148.032 29.8438C147.316 29.8438 146.691 30.0199 146.157 30.3722C145.629 30.7187 145.22 31.1733 144.93 31.7358C144.646 32.2926 144.504 32.8977 144.504 33.5511V35.0426C144.504 35.9176 144.657 36.6619 144.964 37.2756C145.277 37.8892 145.711 38.358 146.268 38.6818C146.825 39 147.476 39.1591 148.22 39.1591C148.703 39.1591 149.143 39.0909 149.541 38.9545C149.939 38.8125 150.282 38.6023 150.572 38.3239C150.862 38.0455 151.084 37.7017 151.237 37.2926L153.649 37.7273C153.456 38.4375 153.109 39.0597 152.609 39.5938C152.115 40.1222 151.493 40.5341 150.743 40.8295C149.998 41.1193 149.149 41.2642 148.194 41.2642ZM157.118 41V27.9091H159.581V29.9886H159.718C159.956 29.2841 160.377 28.7301 160.979 28.3267C161.587 27.9176 162.274 27.7131 163.042 27.7131C163.201 27.7131 163.388 27.7187 163.604 27.7301C163.826 27.7415 163.999 27.7557 164.124 27.7727V30.2102C164.022 30.1818 163.84 30.1506 163.578 30.1165C163.317 30.0767 163.056 30.0568 162.794 30.0568C162.192 30.0568 161.655 30.1847 161.184 30.4403C160.718 30.6903 160.348 31.0398 160.076 31.4886C159.803 31.9318 159.667 32.4375 159.667 33.0057V41H157.118Z" fill="white"/>
<path d="M38.0165 49.4773V52H36.8062V46.1818H37.9824V48.4062H38.0335C38.132 48.1487 38.2911 47.947 38.5108 47.8011C38.7305 47.6534 39.006 47.5795 39.3375 47.5795C39.6405 47.5795 39.9047 47.6458 40.1301 47.7784C40.3574 47.9091 40.5335 48.0975 40.6585 48.3438C40.7854 48.5881 40.8479 48.8807 40.846 49.2216V52H39.6358V49.4375C39.6377 49.1686 39.5695 48.9593 39.4312 48.8097C39.2949 48.66 39.1036 48.5852 38.8574 48.5852C38.6926 48.5852 38.5468 48.6203 38.4199 48.6903C38.2949 48.7604 38.1964 48.8627 38.1244 48.9972C38.0543 49.1297 38.0184 49.2898 38.0165 49.4773ZM44.8367 50.142V47.6364H46.0469V52H44.885V51.2074H44.8396C44.7411 51.4631 44.5772 51.6686 44.3481 51.8239C44.1208 51.9792 43.8433 52.0568 43.5157 52.0568C43.224 52.0568 42.9674 51.9905 42.7458 51.858C42.5242 51.7254 42.3509 51.5369 42.2259 51.2926C42.1028 51.0483 42.0403 50.7557 42.0384 50.4148V47.6364H43.2486V50.1989C43.2505 50.4564 43.3197 50.66 43.456 50.8097C43.5924 50.9593 43.7752 51.0341 44.0043 51.0341C44.1502 51.0341 44.2865 51.0009 44.4134 50.9347C44.5403 50.8665 44.6426 50.7661 44.7202 50.6335C44.7998 50.5009 44.8386 50.3371 44.8367 50.142ZM48.8629 52.071C48.5315 52.071 48.2313 51.9858 47.9624 51.8153C47.6953 51.643 47.4832 51.3902 47.326 51.0568C47.1707 50.7216 47.0931 50.3106 47.0931 49.8239C47.0931 49.3239 47.1735 48.9081 47.3345 48.5767C47.4955 48.2434 47.7095 47.9943 47.9766 47.8295C48.2455 47.6629 48.54 47.5795 48.8601 47.5795C49.1044 47.5795 49.308 47.6212 49.4709 47.7045C49.6357 47.786 49.7682 47.8883 49.8686 48.0114C49.9709 48.1326 50.0485 48.2519 50.1016 48.3693H50.1385V46.1818H51.3459V52H50.1527V51.3011H50.1016C50.0448 51.4223 49.9643 51.5426 49.8601 51.6619C49.7578 51.7794 49.6243 51.8769 49.4595 51.9545C49.2967 52.0322 49.0978 52.071 48.8629 52.071ZM49.2465 51.108C49.4415 51.108 49.6063 51.0549 49.7408 50.9489C49.8771 50.8409 49.9813 50.6903 50.0533 50.4972C50.1271 50.304 50.1641 50.0777 50.1641 49.8182C50.1641 49.5587 50.1281 49.3333 50.0561 49.142C49.9842 48.9508 49.88 48.803 49.7436 48.6989C49.6073 48.5947 49.4415 48.5426 49.2465 48.5426C49.0476 48.5426 48.88 48.5966 48.7436 48.7045C48.6073 48.8125 48.504 48.9621 48.434 49.1534C48.3639 49.3447 48.3288 49.5663 48.3288 49.8182C48.3288 50.072 48.3639 50.2964 48.434 50.4915C48.5059 50.6847 48.6092 50.8362 48.7436 50.946C48.88 51.054 49.0476 51.108 49.2465 51.108ZM56.4566 52.0852C56.0551 52.0852 55.7085 52.0133 55.4168 51.8693C55.1251 51.7254 54.9007 51.5303 54.7435 51.2841C54.5882 51.036 54.5106 50.7595 54.5106 50.4545C54.5106 50.2273 54.556 50.0256 54.6469 49.8494C54.7378 49.6733 54.8647 49.5114 55.0276 49.3636C55.1905 49.214 55.3799 49.0653 55.5958 48.9176L56.7236 48.1761C56.8695 48.0833 56.9765 47.9858 57.0446 47.8835C57.1128 47.7794 57.1469 47.6667 57.1469 47.5455C57.1469 47.4299 57.1005 47.3229 57.0077 47.2244C56.9149 47.1259 56.7833 47.0777 56.6128 47.0795C56.4992 47.0795 56.4007 47.1051 56.3174 47.1562C56.234 47.2055 56.1687 47.2708 56.1213 47.3523C56.0759 47.4318 56.0532 47.5208 56.0532 47.6193C56.0532 47.7405 56.0873 47.8636 56.1554 47.9886C56.2236 48.1136 56.3145 48.2462 56.4282 48.3864C56.5418 48.5246 56.6659 48.6742 56.8003 48.8352L59.5588 52H58.2975L55.9963 49.4375C55.8448 49.2652 55.6933 49.0852 55.5418 48.8977C55.3922 48.7083 55.2672 48.5076 55.1668 48.2955C55.0664 48.0814 55.0162 47.8494 55.0162 47.5994C55.0162 47.3172 55.0816 47.0634 55.2123 46.8381C55.3448 46.6127 55.5304 46.4347 55.7691 46.304C56.0077 46.1714 56.2861 46.1051 56.6043 46.1051C56.9149 46.1051 57.1829 46.1686 57.4083 46.2955C57.6356 46.4205 57.8098 46.5871 57.931 46.7955C58.0541 47.0019 58.1157 47.2292 58.1157 47.4773C58.1157 47.7519 58.0475 48.0009 57.9111 48.2244C57.7767 48.446 57.5873 48.6449 57.3429 48.821L56.1554 49.6761C55.9945 49.7936 55.8751 49.9138 55.7975 50.0369C55.7217 50.1581 55.6838 50.2746 55.6838 50.3864C55.6838 50.5246 55.7179 50.6487 55.7861 50.7585C55.8543 50.8684 55.9509 50.9555 56.0759 51.0199C56.2009 51.0824 56.3477 51.1136 56.5162 51.1136C56.7208 51.1136 56.9225 51.0672 57.1213 50.9744C57.3221 50.8797 57.5039 50.7462 57.6668 50.5739C57.8316 50.3996 57.9632 50.1932 58.0617 49.9545C58.1602 49.7159 58.2094 49.4517 58.2094 49.1619H59.2123C59.2123 49.518 59.1734 49.839 59.0958 50.125C59.0181 50.4091 58.9102 50.6572 58.7719 50.8693C58.6337 51.0795 58.4755 51.2519 58.2975 51.3864C58.2407 51.4223 58.1857 51.4564 58.1327 51.4886C58.0797 51.5208 58.0248 51.5549 57.9679 51.5909C57.752 51.7652 57.5106 51.8911 57.2435 51.9688C56.9784 52.0464 56.716 52.0852 56.4566 52.0852ZM63.4913 50.7443L63.4941 49.2926H63.6702L65.068 47.6364H66.4572L64.5793 49.8295H64.2924L63.4913 50.7443ZM62.3947 52V46.1818H63.6049V52H62.3947ZM65.1219 52L63.8379 50.0994L64.6447 49.2443L66.5396 52H65.1219ZM67.2909 52V47.6364H68.4642V48.3977H68.5097C68.5892 48.1269 68.7227 47.9223 68.9102 47.7841C69.0977 47.6439 69.3136 47.5739 69.558 47.5739C69.6186 47.5739 69.6839 47.5777 69.754 47.5852C69.8241 47.5928 69.8856 47.6032 69.9387 47.6165V48.6903C69.8818 48.6733 69.8032 48.6581 69.7029 48.6449C69.6025 48.6316 69.5106 48.625 69.4273 48.625C69.2493 48.625 69.0902 48.6638 68.95 48.7415C68.8118 48.8172 68.7019 48.9233 68.6205 49.0597C68.5409 49.196 68.5012 49.3532 68.5012 49.5312V52H67.2909ZM72.5728 52.0852C72.1315 52.0852 71.7499 51.9915 71.4279 51.804C71.1079 51.6146 70.8607 51.3513 70.6865 51.0142C70.5122 50.6752 70.4251 50.2822 70.4251 49.8352C70.4251 49.3845 70.5122 48.9905 70.6865 48.6534C70.8607 48.3144 71.1079 48.0511 71.4279 47.8636C71.7499 47.6742 72.1315 47.5795 72.5728 47.5795C73.0141 47.5795 73.3948 47.6742 73.7149 47.8636C74.0368 48.0511 74.2849 48.3144 74.4592 48.6534C74.6334 48.9905 74.7206 49.3845 74.7206 49.8352C74.7206 50.2822 74.6334 50.6752 74.4592 51.0142C74.2849 51.3513 74.0368 51.6146 73.7149 51.804C73.3948 51.9915 73.0141 52.0852 72.5728 52.0852ZM72.5785 51.1477C72.7793 51.1477 72.9469 51.0909 73.0813 50.9773C73.2158 50.8617 73.3171 50.7045 73.3853 50.5057C73.4554 50.3068 73.4904 50.0805 73.4904 49.8267C73.4904 49.5729 73.4554 49.3466 73.3853 49.1477C73.3171 48.9489 73.2158 48.7917 73.0813 48.6761C72.9469 48.5606 72.7793 48.5028 72.5785 48.5028C72.3759 48.5028 72.2054 48.5606 72.0671 48.6761C71.9308 48.7917 71.8276 48.9489 71.7575 49.1477C71.6893 49.3466 71.6552 49.5729 71.6552 49.8267C71.6552 50.0805 71.6893 50.3068 71.7575 50.5057C71.8276 50.7045 71.9308 50.8617 72.0671 50.9773C72.2054 51.0909 72.3759 51.1477 72.5785 51.1477ZM75.7475 53.6364V47.6364H76.9407V48.3693H76.9946C77.0477 48.2519 77.1244 48.1326 77.2248 48.0114C77.327 47.8883 77.4596 47.786 77.6225 47.7045C77.7873 47.6212 77.9918 47.5795 78.2361 47.5795C78.5543 47.5795 78.8479 47.6629 79.1168 47.8295C79.3857 47.9943 79.6007 48.2434 79.7617 48.5767C79.9227 48.9081 80.0032 49.3239 80.0032 49.8239C80.0032 50.3106 79.9246 50.7216 79.7674 51.0568C79.6121 51.3902 79.3999 51.643 79.131 51.8153C78.864 51.9858 78.5647 52.071 78.2333 52.071C77.9984 52.071 77.7986 52.0322 77.6338 51.9545C77.471 51.8769 77.3374 51.7794 77.2333 51.6619C77.1291 51.5426 77.0496 51.4223 76.9946 51.3011H76.9577V53.6364H75.7475ZM76.9321 49.8182C76.9321 50.0777 76.9681 50.304 77.0401 50.4972C77.1121 50.6903 77.2162 50.8409 77.3526 50.9489C77.489 51.0549 77.6547 51.108 77.8498 51.108C78.0467 51.108 78.2134 51.054 78.3498 50.946C78.4861 50.8362 78.5893 50.6847 78.6594 50.4915C78.7314 50.2964 78.7674 50.072 78.7674 49.8182C78.7674 49.5663 78.7323 49.3447 78.6623 49.1534C78.5922 48.9621 78.489 48.8125 78.3526 48.7045C78.2162 48.5966 78.0486 48.5426 77.8498 48.5426C77.6528 48.5426 77.4861 48.5947 77.3498 48.6989C77.2153 48.803 77.1121 48.9508 77.0401 49.142C76.9681 49.3333 76.9321 49.5587 76.9321 49.8182ZM81.05 53.6364V47.6364H82.2432V48.3693H82.2971C82.3502 48.2519 82.4269 48.1326 82.5273 48.0114C82.6295 47.8883 82.7621 47.786 82.925 47.7045C83.0898 47.6212 83.2943 47.5795 83.5386 47.5795C83.8568 47.5795 84.1504 47.6629 84.4193 47.8295C84.6882 47.9943 84.9032 48.2434 85.0642 48.5767C85.2252 48.9081 85.3057 49.3239 85.3057 49.8239C85.3057 50.3106 85.2271 50.7216 85.0699 51.0568C84.9146 51.3902 84.7024 51.643 84.4335 51.8153C84.1665 51.9858 83.8672 52.071 83.5358 52.071C83.3009 52.071 83.1011 52.0322 82.9364 51.9545C82.7735 51.8769 82.6399 51.7794 82.5358 51.6619C82.4316 51.5426 82.3521 51.4223 82.2971 51.3011H82.2602V53.6364H81.05ZM82.2346 49.8182C82.2346 50.0777 82.2706 50.304 82.3426 50.4972C82.4146 50.6903 82.5187 50.8409 82.6551 50.9489C82.7915 51.0549 82.9572 51.108 83.1523 51.108C83.3492 51.108 83.5159 51.054 83.6523 50.946C83.7886 50.8362 83.8918 50.6847 83.9619 50.4915C84.0339 50.2964 84.0699 50.072 84.0699 49.8182C84.0699 49.5663 84.0348 49.3447 83.9648 49.1534C83.8947 48.9621 83.7915 48.8125 83.6551 48.7045C83.5187 48.5966 83.3511 48.5426 83.1523 48.5426C82.9553 48.5426 82.7886 48.5947 82.6523 48.6989C82.5178 48.803 82.4146 48.9508 82.3426 49.142C82.2706 49.3333 82.2346 49.5587 82.2346 49.8182ZM89.9832 48.8807L88.8752 48.9489C88.8563 48.8542 88.8156 48.7689 88.7531 48.6932C88.6906 48.6155 88.6082 48.554 88.5059 48.5085C88.4055 48.4612 88.2852 48.4375 88.1451 48.4375C87.9576 48.4375 87.7995 48.4773 87.6707 48.5568C87.5419 48.6345 87.4775 48.7386 87.4775 48.8693C87.4775 48.9735 87.5192 49.0616 87.6025 49.1335C87.6858 49.2055 87.8288 49.2633 88.0315 49.3068L88.8212 49.4659C89.2455 49.553 89.5618 49.6932 89.7701 49.8864C89.9784 50.0795 90.0826 50.3333 90.0826 50.6477C90.0826 50.9337 89.9983 51.1847 89.8298 51.4006C89.6631 51.6165 89.4339 51.785 89.1423 51.9062C88.8525 52.0256 88.5182 52.0852 88.1394 52.0852C87.5618 52.0852 87.1015 51.965 86.7587 51.7244C86.4178 51.482 86.218 51.1525 86.1593 50.7358L87.3496 50.6733C87.3856 50.8494 87.4727 50.9839 87.611 51.0767C87.7493 51.1676 87.9263 51.2131 88.1423 51.2131C88.3544 51.2131 88.5248 51.1723 88.6536 51.0909C88.7843 51.0076 88.8506 50.9006 88.8525 50.7699C88.8506 50.66 88.8042 50.5701 88.7133 50.5C88.6224 50.428 88.4822 50.3731 88.2928 50.3352L87.5371 50.1847C87.111 50.0994 86.7938 49.9517 86.5854 49.7415C86.379 49.5312 86.2758 49.2633 86.2758 48.9375C86.2758 48.6572 86.3515 48.4157 86.5031 48.2131C86.6565 48.0104 86.8714 47.8542 87.1479 47.7443C87.4263 47.6345 87.7521 47.5795 88.1252 47.5795C88.6763 47.5795 89.1101 47.696 89.4263 47.929C89.7445 48.1619 89.9301 48.4792 89.9832 48.8807ZM93.4057 47.6364V48.5455H90.7779V47.6364H93.4057ZM91.3744 46.5909H92.5847V50.6591C92.5847 50.7708 92.6017 50.858 92.6358 50.9205C92.6699 50.9811 92.7172 51.0237 92.7779 51.0483C92.8404 51.0729 92.9123 51.0852 92.9938 51.0852C93.0506 51.0852 93.1074 51.0805 93.1642 51.071C93.221 51.0597 93.2646 51.0511 93.2949 51.0455L93.4852 51.946C93.4246 51.965 93.3394 51.9867 93.2296 52.0114C93.1197 52.0379 92.9862 52.054 92.829 52.0597C92.5373 52.071 92.2816 52.0322 92.0619 51.9432C91.8441 51.8542 91.6746 51.7159 91.5534 51.5284C91.4322 51.3409 91.3726 51.1042 91.3744 50.8182V46.5909ZM96.3758 52.0852C95.9269 52.0852 95.5406 51.9943 95.2167 51.8125C94.8947 51.6288 94.6466 51.3693 94.4724 51.0341C94.2982 50.697 94.211 50.2983 94.211 49.8381C94.211 49.3892 94.2982 48.9953 94.4724 48.6562C94.6466 48.3172 94.8919 48.053 95.2082 47.8636C95.5264 47.6742 95.8995 47.5795 96.3275 47.5795C96.6154 47.5795 96.8834 47.6259 97.1315 47.7188C97.3815 47.8097 97.5993 47.947 97.7849 48.1307C97.9724 48.3144 98.1182 48.5455 98.2224 48.8239C98.3266 49.1004 98.3786 49.4242 98.3786 49.7955V50.1278H94.694V49.3778H97.2394C97.2394 49.2036 97.2016 49.0492 97.1258 48.9148C97.0501 48.7803 96.9449 48.6752 96.8105 48.5994C96.6779 48.5218 96.5235 48.483 96.3474 48.483C96.1637 48.483 96.0008 48.5256 95.8588 48.6108C95.7186 48.6941 95.6088 48.8068 95.5292 48.9489C95.4497 49.089 95.409 49.2453 95.4071 49.4176V50.1307C95.4071 50.3466 95.4468 50.5331 95.5264 50.6903C95.6078 50.8475 95.7224 50.9688 95.8701 51.054C96.0179 51.1392 96.193 51.1818 96.3957 51.1818C96.5302 51.1818 96.6533 51.1629 96.765 51.125C96.8768 51.0871 96.9724 51.0303 97.0519 50.9545C97.1315 50.8788 97.1921 50.786 97.2338 50.6761L98.3531 50.75C98.2963 51.0189 98.1798 51.2538 98.0036 51.4545C97.8294 51.6534 97.604 51.8087 97.3275 51.9205C97.0529 52.0303 96.7357 52.0852 96.3758 52.0852ZM99.4084 52V47.6364H100.582V48.3977H100.627C100.707 48.1269 100.84 47.9223 101.028 47.7841C101.215 47.6439 101.431 47.5739 101.675 47.5739C101.736 47.5739 101.801 47.5777 101.871 47.5852C101.942 47.5928 102.003 47.6032 102.056 47.6165V48.6903C101.999 48.6733 101.921 48.6581 101.82 48.6449C101.72 48.6316 101.628 48.625 101.545 48.625C101.367 48.625 101.208 48.6638 101.068 48.7415C100.929 48.8172 100.819 48.9233 100.738 49.0597C100.658 49.196 100.619 49.3532 100.619 49.5312V52H99.4084ZM104.041 52.0824C103.763 52.0824 103.515 52.0341 103.297 51.9375C103.079 51.839 102.907 51.6941 102.78 51.5028C102.655 51.3097 102.592 51.0691 102.592 50.7812C102.592 50.5388 102.637 50.3352 102.726 50.1705C102.815 50.0057 102.936 49.8731 103.089 49.7727C103.243 49.6723 103.417 49.5966 103.612 49.5455C103.809 49.4943 104.016 49.4583 104.232 49.4375C104.485 49.411 104.69 49.3864 104.845 49.3636C105 49.339 105.113 49.303 105.183 49.2557C105.253 49.2083 105.288 49.1383 105.288 49.0455V49.0284C105.288 48.8485 105.232 48.7093 105.118 48.6108C105.006 48.5123 104.847 48.4631 104.641 48.4631C104.423 48.4631 104.25 48.5114 104.121 48.608C103.992 48.7027 103.907 48.822 103.865 48.9659L102.746 48.875C102.803 48.6098 102.914 48.3807 103.081 48.1875C103.248 47.9924 103.463 47.8428 103.726 47.7386C103.991 47.6326 104.298 47.5795 104.646 47.5795C104.889 47.5795 105.121 47.608 105.342 47.6648C105.566 47.7216 105.764 47.8097 105.936 47.929C106.11 48.0483 106.248 48.2017 106.348 48.3892C106.448 48.5748 106.499 48.7973 106.499 49.0568V52H105.351V51.3949H105.317C105.247 51.5312 105.153 51.6515 105.035 51.7557C104.918 51.858 104.777 51.9384 104.612 51.9972C104.447 52.054 104.257 52.0824 104.041 52.0824ZM104.388 51.2472C104.566 51.2472 104.723 51.2121 104.859 51.142C104.996 51.0701 105.103 50.9735 105.18 50.8523C105.258 50.7311 105.297 50.5937 105.297 50.4403V49.9773C105.259 50.0019 105.207 50.0246 105.141 50.0455C105.076 50.0644 105.003 50.0824 104.922 50.0994C104.84 50.1146 104.759 50.1288 104.678 50.142C104.596 50.1534 104.522 50.1638 104.456 50.1733C104.314 50.1941 104.19 50.2273 104.084 50.2727C103.978 50.3182 103.895 50.3797 103.837 50.4574C103.778 50.5331 103.749 50.6278 103.749 50.7415C103.749 50.9062 103.808 51.0322 103.928 51.1193C104.049 51.2045 104.202 51.2472 104.388 51.2472ZM107.677 53.6364V47.6364H108.871V48.3693H108.925C108.978 48.2519 109.054 48.1326 109.155 48.0114C109.257 47.8883 109.39 47.786 109.552 47.7045C109.717 47.6212 109.922 47.5795 110.166 47.5795C110.484 47.5795 110.778 47.6629 111.047 47.8295C111.316 47.9943 111.531 48.2434 111.692 48.5767C111.853 48.9081 111.933 49.3239 111.933 49.8239C111.933 50.3106 111.855 50.7216 111.697 51.0568C111.542 51.3902 111.33 51.643 111.061 51.8153C110.794 51.9858 110.495 52.071 110.163 52.071C109.928 52.071 109.729 52.0322 109.564 51.9545C109.401 51.8769 109.267 51.7794 109.163 51.6619C109.059 51.5426 108.98 51.4223 108.925 51.3011H108.888V53.6364H107.677ZM108.862 49.8182C108.862 50.0777 108.898 50.304 108.97 50.4972C109.042 50.6903 109.146 50.8409 109.283 50.9489C109.419 51.0549 109.585 51.108 109.78 51.108C109.977 51.108 110.143 51.054 110.28 50.946C110.416 50.8362 110.519 50.6847 110.589 50.4915C110.661 50.2964 110.697 50.072 110.697 49.8182C110.697 49.5663 110.662 49.3447 110.592 49.1534C110.522 48.9621 110.419 48.8125 110.283 48.7045C110.146 48.5966 109.979 48.5426 109.78 48.5426C109.583 48.5426 109.416 48.5947 109.28 48.6989C109.145 48.803 109.042 48.9508 108.97 49.142C108.898 49.3333 108.862 49.5587 108.862 49.8182ZM112.98 52V47.6364H114.19V52H112.98ZM113.588 47.0739C113.408 47.0739 113.254 47.0142 113.125 46.8949C112.998 46.7737 112.935 46.6288 112.935 46.4602C112.935 46.2936 112.998 46.1506 113.125 46.0312C113.254 45.91 113.408 45.8494 113.588 45.8494C113.768 45.8494 113.921 45.91 114.048 46.0312C114.177 46.1506 114.241 46.2936 114.241 46.4602C114.241 46.6288 114.177 46.7737 114.048 46.8949C113.921 47.0142 113.768 47.0739 113.588 47.0739Z" fill="white"/>
</svg>
