<svg width="22" height="34" viewBox="0 0 22 34" fill="none" xmlns="http://www.w3.org/2000/svg">
<path d="M0.830212 0C0.349563 0 0 0.335819 0 0.79757V32.8263C0 33.288 0.349563 33.6239 0.830212 33.6239H21.0612C21.5418 33.6239 21.8914 33.288 21.8914 32.8263V0.79757C21.8914 0.335819 21.5418 0 21.0612 0L0.830212 0ZM4.36954 4.19773H17.4782V25.1864H4.36954V4.19773ZM10.9238 27.2853C12.1473 27.2853 13.1086 28.2088 13.1086 29.3841C13.1086 30.5595 12.1473 31.483 10.9238 31.483C9.70037 31.483 8.73908 30.5595 8.73908 29.3841C8.73908 28.2088 9.70037 27.2853 10.9238 27.2853Z" fill="white"/>
</svg>
